<svg width="132" height="132" viewBox="0 0 132 132" fill="none" xmlns="http://www.w3.org/2000/svg">
<path d="M47.2897 113.147C48.0459 113.432 48.5688 113.888 48.8584 114.515C49.1357 115.148 49.1302 115.842 48.8419 116.597L47.1068 121.139C46.8151 121.903 46.3576 122.421 45.7343 122.694C45.0986 122.973 44.4027 122.97 43.6465 122.685C42.8814 122.397 42.354 121.94 42.0644 121.312C41.7714 120.694 41.7708 120.003 42.0625 119.239L42.1235 119.08C42.1405 119.035 42.1736 119.002 42.2227 118.98C42.263 118.954 42.3053 118.95 42.3498 118.967L43.6112 119.381C43.718 119.421 43.751 119.494 43.7103 119.601L43.5831 119.934C43.4644 120.245 43.4567 120.531 43.56 120.794C43.6633 121.056 43.8617 121.243 44.1553 121.353C44.44 121.46 44.7086 121.45 44.9612 121.321C45.2138 121.193 45.3994 120.974 45.5181 120.663L47.3397 115.894C47.4584 115.583 47.4661 115.296 47.3628 115.034C47.2595 114.772 47.0655 114.587 46.7808 114.48C46.4873 114.369 46.2142 114.378 45.9616 114.506C45.7091 114.635 45.5234 114.854 45.4047 115.165L45.2775 115.498C45.2605 115.542 45.2336 115.573 45.1968 115.59C45.1476 115.612 45.1008 115.614 45.0563 115.598L43.8356 115.077C43.7911 115.06 43.7623 115.029 43.7492 114.983C43.7238 114.943 43.7195 114.901 43.7365 114.857L43.7976 114.697C44.0859 113.942 44.5496 113.421 45.1886 113.133C45.8242 112.855 46.5246 112.859 47.2897 113.147Z" fill="#1A2634"/>
<path d="M38.8201 109.054C39.5201 109.477 39.9573 110.029 40.1316 110.712C40.2977 111.389 40.1682 112.077 39.7429 112.775L37.2507 116.867C36.8254 117.566 36.2726 117.998 35.5922 118.165C34.9037 118.327 34.2094 118.197 33.5094 117.774C32.8093 117.352 32.3722 116.8 32.1979 116.117C32.0236 115.435 32.1491 114.744 32.5744 114.046L35.0666 109.954C35.4918 109.256 36.0487 108.826 36.7373 108.664C37.4258 108.502 38.1201 108.632 38.8201 109.054ZM38.0784 110.272C37.8016 110.105 37.5209 110.064 37.2363 110.147C36.9466 110.239 36.7079 110.439 36.52 110.748L33.9536 114.962C33.7657 115.27 33.7004 115.569 33.7576 115.859C33.8098 116.157 33.9743 116.39 34.2511 116.557C34.5278 116.724 34.811 116.761 35.1006 116.669C35.3772 116.581 35.6094 116.382 35.7973 116.074L38.3637 111.86C38.5516 111.551 38.6235 111.251 38.5793 110.958C38.5221 110.668 38.3551 110.439 38.0784 110.272Z" fill="#1A2634"/>
<path d="M23.5229 109.89C23.491 109.925 23.4549 109.944 23.4146 109.946C23.3608 109.949 23.3162 109.934 23.2809 109.902L22.3156 109.035C22.2802 109.003 22.2647 108.964 22.269 108.917C22.2598 108.87 22.2712 108.829 22.303 108.794L28.7671 101.643C28.799 101.608 28.8418 101.589 28.8956 101.586C28.936 101.584 28.9738 101.599 29.0092 101.63L30.123 102.631C30.1937 102.694 30.2078 102.771 30.1652 102.861L27.6914 108.766C27.6793 108.793 27.6871 108.813 27.7147 108.825C27.7288 108.838 27.7455 108.834 27.7646 108.812L31.7797 104.349C31.8116 104.314 31.8544 104.295 31.9082 104.292C31.9485 104.29 31.9864 104.305 32.0217 104.337L32.987 105.204C33.0224 105.236 33.0447 105.275 33.0538 105.322C33.0495 105.369 33.0315 105.41 32.9996 105.445L26.5355 112.596C26.5036 112.632 26.4675 112.65 26.4272 112.652C26.3734 112.655 26.3288 112.641 26.2935 112.609L25.2009 111.627C25.1302 111.564 25.1161 111.487 25.1586 111.398L27.5932 105.515C27.6052 105.487 27.6042 105.467 27.59 105.454C27.5624 105.442 27.5391 105.447 27.5199 105.468L23.5229 109.89Z" fill="#1A2634"/>
<path d="M14.8974 100.251C14.8687 100.213 14.8609 100.171 14.8739 100.126C14.8737 100.078 14.8925 100.04 14.9304 100.011L15.7944 99.357C15.8323 99.3283 15.8779 99.3177 15.9312 99.325C15.9712 99.3305 16.0056 99.3522 16.0343 99.39L17.1297 100.832C17.1584 100.87 17.1918 100.875 17.2297 100.846L23.8575 95.8275C23.8954 95.7988 23.941 95.7881 23.9944 95.7955C24.0343 95.801 24.0687 95.8226 24.0975 95.8605L24.891 96.9052C24.9197 96.943 24.9342 96.9857 24.9345 97.0332C24.9214 97.0789 24.8959 97.1161 24.8581 97.1448L18.2302 102.163C18.1923 102.192 18.1877 102.225 18.2164 102.263L19.2515 103.626C19.2802 103.663 19.2947 103.706 19.295 103.754C19.2819 103.799 19.2564 103.837 19.2185 103.865L18.3545 104.519C18.3166 104.548 18.2777 104.56 18.2377 104.554C18.1844 104.547 18.1433 104.524 18.1146 104.486L14.8974 100.251Z" fill="#1A2634"/>
<path d="M18.7755 86.9812C18.8268 87.0831 18.8079 87.1619 18.7187 87.2174L17.5033 88.1328C17.4608 88.1542 17.4524 88.1903 17.478 88.2413L18.414 90.1009C18.4397 90.1519 18.4737 90.1667 18.5162 90.1453L19.9753 89.7139C20.0729 89.6754 20.1474 89.707 20.1987 89.8089L20.7821 90.968C20.8419 91.0869 20.8103 91.1614 20.6871 91.1915L11.1286 93.6418C11.0267 93.6719 10.9522 93.6402 10.9052 93.5468L10.2256 92.1966C10.1786 92.1032 10.1975 92.0245 10.2824 91.9605L17.9432 85.7399L17.9941 85.7143C18.0706 85.6758 18.1323 85.7033 18.1793 85.7967L18.7755 86.9812ZM17.1144 90.5638C17.1612 90.5509 17.1717 90.519 17.1461 90.468L16.4344 89.0542C16.4088 89.0032 16.3769 88.9927 16.3387 89.0226L12.6859 91.7879C12.6647 91.8093 12.6584 91.8284 12.6669 91.8454C12.6755 91.8624 12.6946 91.8687 12.7244 91.8644L17.1144 90.5638Z" fill="#1A2634"/>
<path d="M16.1483 79.6066C16.374 80.3825 16.3232 81.0759 15.9959 81.6868C15.6569 82.2913 15.0997 82.7071 14.3242 82.9342L9.65761 84.3009C8.87301 84.5306 8.18493 84.4796 7.59337 84.1476C6.99003 83.8092 6.57553 83.252 6.34988 82.4761C6.12157 81.6911 6.17103 80.9931 6.49827 80.3822C6.81639 79.7739 7.36775 79.3549 8.15236 79.1251L8.31658 79.077C8.36219 79.0637 8.40856 79.0699 8.45567 79.0957C8.50013 79.1124 8.52899 79.1436 8.54227 79.1892L8.96735 80.4466C8.99921 80.5561 8.96039 80.6269 8.85091 80.659L8.50879 80.7592C8.18947 80.8527 7.95601 81.0201 7.80839 81.2615C7.66077 81.5028 7.63077 81.7741 7.71838 82.0754C7.80333 82.3675 7.97271 82.5754 8.22652 82.6992C8.48033 82.823 8.76689 82.8381 9.0862 82.7446L13.9854 81.3098C14.3047 81.2163 14.5382 81.0489 14.6858 80.8075C14.8334 80.5662 14.8648 80.2995 14.7798 80.0074C14.6922 79.7061 14.5215 79.4936 14.2677 79.3698C14.0139 79.246 13.7273 79.2309 13.408 79.3244L13.0659 79.4246C13.0203 79.438 12.9798 79.435 12.9445 79.4156C12.8973 79.3898 12.8672 79.354 12.8539 79.3084L12.5383 78.019C12.525 77.9733 12.5326 77.9315 12.5612 77.8934C12.5779 77.8489 12.6091 77.8199 12.6547 77.8066L12.8189 77.7585C13.5944 77.5314 14.2884 77.5857 14.9008 77.9214C15.5042 78.2598 15.92 78.8215 16.1483 79.6066Z" fill="#1A2634"/>
<path d="M4.0683 68.8688C4.06356 68.8215 4.07868 68.7817 4.11366 68.7494C4.13824 68.7087 4.17416 68.6858 4.22144 68.6809L5.29942 68.5693C5.3467 68.5644 5.39115 68.5789 5.43276 68.6128C5.46398 68.6383 5.48195 68.6746 5.48669 68.7219L5.66726 70.5239C5.672 70.5712 5.69801 70.5924 5.74529 70.5875L14.0145 69.7313C14.0618 69.7264 14.1062 69.7409 14.1479 69.7748C14.1791 69.8003 14.197 69.8366 14.2018 69.8839L14.3326 71.1893C14.3373 71.2366 14.3274 71.2806 14.3028 71.3214C14.2678 71.3537 14.2267 71.3723 14.1794 71.3772L5.91021 72.2334C5.86294 72.2383 5.84167 72.2644 5.8464 72.3117L6.01702 74.0143C6.02176 74.0616 6.01184 74.1057 5.98726 74.1464C5.95228 74.1787 5.91115 74.1973 5.86387 74.2022L4.7859 74.3138C4.73862 74.3187 4.69937 74.3085 4.66816 74.283C4.62654 74.2491 4.60337 74.2085 4.59863 74.1612L4.0683 68.8688Z" fill="#1A2634"/>
<path d="M14.9835 57.7864C14.8172 58.5869 14.4275 59.1771 13.8145 59.5571C13.1942 59.926 12.4601 60.0243 11.6123 59.8523L4.70867 58.4514C4.66208 58.442 4.62772 58.4205 4.60557 58.3869C4.57604 58.3421 4.56611 58.2964 4.57578 58.2499L4.84265 56.9654C4.85232 56.9189 4.87869 56.8854 4.92176 56.8651C4.95744 56.8335 4.99858 56.8224 5.04516 56.8319L12.1165 58.2668C12.4891 58.3424 12.8113 58.3108 13.0829 58.1719C13.3545 58.033 13.5222 57.81 13.586 57.5028C13.6498 57.1957 13.5846 56.9254 13.3903 56.692C13.1961 56.4585 12.9127 56.304 12.54 56.2284L5.46868 54.7935C5.4221 54.784 5.38773 54.7625 5.36558 54.7289C5.33605 54.6841 5.32612 54.6385 5.33579 54.5919L5.60266 53.3075C5.61233 53.2609 5.6387 53.2275 5.68177 53.2071C5.71745 53.1756 5.75859 53.1645 5.80517 53.174L12.7088 54.5748C13.5566 54.7469 14.1911 55.1278 14.6123 55.7177C15.0241 56.3057 15.1479 56.9952 14.9835 57.7864Z" fill="#1A2634"/>
<path d="M17.6458 49.0814C17.3519 49.8137 16.8937 50.3175 16.271 50.5928C15.6484 50.8682 14.979 50.8644 14.2628 50.5815L13.9179 50.4454C13.8737 50.4279 13.8437 50.4007 13.8278 50.3637C13.8066 50.3145 13.8048 50.2678 13.8225 50.2237L14.3058 49.0194C14.3235 48.9753 14.3553 48.947 14.4013 48.9345C14.442 48.9097 14.4844 48.906 14.5286 48.9234L14.7939 49.0282C15.1387 49.1644 15.4509 49.1906 15.7303 49.1068C16.0134 49.0141 16.2097 48.8311 16.3195 48.5576C16.4292 48.2841 16.4223 48.0207 16.2985 47.7674C16.166 47.5106 15.9361 47.3176 15.609 47.1884C15.3791 47.0976 15.1607 47.0676 14.9537 47.0983C14.7468 47.129 14.5328 47.2029 14.3117 47.3199C14.0905 47.437 13.7606 47.6338 13.3219 47.9102C12.8266 48.2257 12.4003 48.4712 12.0429 48.647C11.6892 48.8139 11.3027 48.9218 10.8835 48.9709C10.459 49.0077 10.0169 48.9353 9.55712 48.7537C8.82324 48.4638 8.32819 48.0128 8.07195 47.4005C7.81572 46.7883 7.83275 46.1204 8.12306 45.397C8.41691 44.6647 8.884 44.1644 9.52433 43.896C10.1558 43.6242 10.8473 43.6366 11.5989 43.9335L11.9172 44.0592C11.9614 44.0767 11.9941 44.11 12.0153 44.1593C12.0312 44.1962 12.0303 44.2367 12.0126 44.2809L11.5347 45.4719C11.517 45.516 11.4878 45.5505 11.4471 45.5753C11.4011 45.5878 11.356 45.5853 11.3118 45.5679L10.967 45.4317C10.6222 45.2955 10.3127 45.2755 10.0385 45.3716C9.75901 45.4554 9.56263 45.6385 9.44934 45.9208C9.34313 46.1855 9.35365 46.4401 9.48091 46.6845C9.59932 46.9255 9.82652 47.1123 10.1625 47.245C10.4808 47.3707 10.7859 47.389 11.0778 47.2999C11.3731 47.2019 11.8216 46.9651 12.423 46.5893C13.0369 46.2083 13.5269 45.9317 13.893 45.7594C14.2504 45.5837 14.6094 45.4802 14.9702 45.449C15.3311 45.4177 15.7192 45.4842 16.1348 45.6483C16.8864 45.9451 17.4018 46.4093 17.681 47.0409C17.9514 47.6689 17.9396 48.3491 17.6458 49.0814Z" fill="#1A2634"/>
<path d="M21.755 34.8145C21.5661 35.0768 21.3254 35.2728 21.0328 35.4025C20.7457 35.5245 20.4428 35.5709 20.1241 35.5417C19.8054 35.5125 19.5184 35.4066 19.2632 35.2242C18.8611 34.9367 18.6209 34.5545 18.5425 34.0778C18.4697 33.5933 18.5777 33.1506 18.8667 32.7494C19.15 32.356 19.5309 32.12 20.0094 32.0414C20.4933 31.955 20.9364 32.0556 21.3385 32.3431C21.5937 32.5256 21.7862 32.7625 21.916 33.054C22.0458 33.3455 22.0959 33.6501 22.0662 33.9677C22.0421 34.2777 21.9384 34.56 21.755 34.8145Z" fill="#1A2634"/>
<path d="M33.253 25.4264C32.6715 25.9875 32.0343 26.2654 31.3414 26.2603C30.6488 26.2417 30.0215 25.942 29.4596 25.3613L26.0784 21.8668C25.5099 21.2792 25.2348 20.6463 25.2532 19.9681C25.2718 19.2764 25.5719 18.65 26.1534 18.089C26.7417 17.5213 27.3823 17.24 28.0752 17.2452C28.7615 17.2436 29.3888 17.5365 29.9573 18.1241L30.0763 18.247C30.1094 18.2812 30.1254 18.3251 30.1245 18.3789C30.1304 18.426 30.1163 18.4661 30.0821 18.4991L29.1674 19.4609C29.0853 19.5401 29.0046 19.5387 28.9253 19.4567L28.6774 19.2005C28.446 18.9614 28.1892 18.8327 27.9069 18.8144C27.6247 18.7961 27.3707 18.8959 27.1449 19.1137C26.926 19.325 26.8209 19.5717 26.8295 19.8541C26.8381 20.1364 26.9581 20.3971 27.1894 20.6362L30.7393 24.305C30.9706 24.5441 31.2274 24.6728 31.5097 24.6911C31.7919 24.7093 32.0425 24.6129 32.2614 24.4016C32.4872 24.1838 32.5958 23.9337 32.5872 23.6514C32.5786 23.3691 32.4586 23.1084 32.2272 22.8693L31.9793 22.6131C31.9463 22.5789 31.9301 22.5417 31.9308 22.5014C31.9317 22.4476 31.9493 22.4043 31.9835 22.3713L32.9775 21.4914C33.0117 21.4584 33.0523 21.4457 33.0992 21.4532C33.1464 21.4473 33.1866 21.4614 33.2196 21.4956L33.3386 21.6186C33.9005 22.1993 34.1754 22.8389 34.1634 23.5374C34.1448 24.2291 33.8414 24.8588 33.253 25.4264Z" fill="#1A2634"/>
<path d="M41.3591 19.4475C40.634 19.8252 39.9339 19.9112 39.2588 19.7055C38.5921 19.4954 38.0701 19.0277 37.6926 18.3025L35.4804 14.0525C35.1029 13.3273 35.0193 12.6313 35.2295 11.9644C35.4481 11.2932 35.9199 10.7687 36.645 10.391C37.3701 10.0133 38.0702 9.92726 38.7453 10.133C39.4204 10.3387 39.9466 10.8042 40.3241 11.5294L42.5363 15.7794C42.9138 16.5046 42.9932 17.2028 42.7746 17.8741C42.556 18.5453 42.0841 19.0698 41.3591 19.4475ZM40.7007 18.1826C40.9873 18.0333 41.1687 17.8156 41.2448 17.5294C41.3165 17.2348 41.269 16.9272 41.1022 16.6068L38.8242 12.2303C38.6574 11.9099 38.435 11.6988 38.157 11.5971C37.8746 11.4869 37.5901 11.5065 37.3034 11.6558C37.0167 11.8052 36.8375 12.0271 36.7658 12.3217C36.6982 12.6035 36.7477 12.9046 36.9145 13.2251L39.1925 17.6016C39.3593 17.922 39.5797 18.1395 39.8537 18.254C40.1317 18.3558 40.414 18.332 40.7007 18.1826Z" fill="#1A2634"/>
<path d="M48.2752 6.53474C48.2616 6.4892 48.2643 6.44866 48.2835 6.41311C48.309 6.36571 48.3445 6.33515 48.39 6.32145L49.6325 5.9472C49.678 5.93349 49.7199 5.94074 49.7581 5.96894C49.8026 5.9853 49.8317 6.01625 49.8454 6.06179L52.6071 15.2973C52.6207 15.3428 52.6148 15.3893 52.5892 15.4367C52.5701 15.4722 52.5378 15.4969 52.4923 15.5106L51.0586 15.9424C50.9676 15.9698 50.8948 15.9421 50.8403 15.8593L47.0736 10.6794C47.0564 10.6548 47.0354 10.6512 47.0109 10.6685C46.9927 10.674 46.9876 10.6904 46.9958 10.7177L48.7294 16.4653C48.743 16.5108 48.7371 16.5573 48.7116 16.6047C48.6924 16.6402 48.6601 16.6649 48.6146 16.6786L47.3721 17.0528C47.3266 17.0665 47.2815 17.0652 47.237 17.0489C47.1988 17.0206 47.1728 16.9838 47.1592 16.9382L44.3975 7.70273C44.3839 7.65719 44.3866 7.61665 44.4058 7.5811C44.4313 7.5337 44.4668 7.50314 44.5123 7.48944L45.9187 7.06583C46.0097 7.03842 46.0825 7.06613 46.137 7.14899L49.905 12.2838C49.9223 12.3084 49.94 12.3179 49.9583 12.3124C49.9828 12.2951 49.991 12.2728 49.9829 12.2455L48.2752 6.53474Z" fill="#1A2634"/>
<path d="M61.0338 4.14839C61.0811 4.14342 61.1209 4.15836 61.1531 4.19321C61.1938 4.21761 61.2165 4.25345 61.2213 4.30074L61.331 5.37892C61.3358 5.4262 61.3212 5.47075 61.2873 5.51256C61.2618 5.54391 61.2254 5.56208 61.1781 5.56705L59.3771 5.7564C59.3298 5.76137 59.3086 5.7875 59.3134 5.83479L60.1546 14.1056C60.1594 14.1528 60.1448 14.1974 60.1108 14.2392C60.0853 14.2705 60.049 14.2887 60.0017 14.2937L58.697 14.4308C58.6497 14.4358 58.6057 14.4261 58.565 14.4017C58.5328 14.3669 58.5143 14.3258 58.5095 14.2785L57.6683 6.00774C57.6635 5.96045 57.6375 5.93929 57.5902 5.94426L55.8884 6.12317C55.8411 6.12814 55.7971 6.11843 55.7564 6.09403C55.7242 6.05918 55.7057 6.01811 55.7009 5.97083L55.5912 4.89265C55.5864 4.84536 55.5968 4.80604 55.6222 4.77468C55.6562 4.73288 55.6968 4.70949 55.7441 4.70452L61.0338 4.14839Z" fill="#1A2634"/>
<path d="M70.3863 14.3279C70.2726 14.3191 70.2152 14.2622 70.2142 14.1572L70.0653 12.6438C70.0692 12.5965 70.0427 12.5706 69.9858 12.5661L67.9102 12.4046C67.8533 12.4002 67.8229 12.4217 67.8191 12.4691L67.4277 13.9404C67.4098 14.0439 67.3439 14.0912 67.2302 14.0823L65.9365 13.9817C65.8038 13.9713 65.7567 13.9057 65.7951 13.7847L68.6798 4.34054C68.7073 4.23779 68.7731 4.19047 68.8774 4.19858L70.3843 4.31585C70.4886 4.32397 70.546 4.38087 70.5565 4.48658L71.8799 14.2582L71.8753 14.3151C71.8683 14.4004 71.8127 14.4389 71.7085 14.4308L70.3863 14.3279ZM68.1916 11.0535C68.1783 11.1001 68.2001 11.1256 68.2569 11.1301L69.835 11.2529C69.8919 11.2573 69.9175 11.2354 69.9119 11.1873L69.4522 6.63188C69.445 6.60272 69.432 6.5874 69.413 6.58592C69.3941 6.58445 69.3787 6.59755 69.3669 6.62524L68.1916 11.0535Z" fill="#1A2634"/>
<path d="M78.0774 15.5473C77.2964 15.3399 76.7302 14.9388 76.379 14.3439C76.0395 13.7423 75.9752 13.0515 76.1861 12.2715L77.4556 7.57755C77.669 6.78834 78.0721 6.22652 78.6647 5.89208C79.2691 5.55091 79.9618 5.48399 80.7428 5.69133C81.533 5.90112 82.1037 6.30344 82.4549 6.8983C82.8086 7.48399 82.8787 8.17143 82.6653 8.96064L82.6206 9.12583C82.6082 9.17171 82.5787 9.20813 82.532 9.23508C82.4945 9.26447 82.4528 9.27306 82.4068 9.26087L81.1102 8.97564C80.9999 8.94637 80.9597 8.87667 80.9895 8.76655L81.0825 8.42242C81.1694 8.10123 81.1482 7.8153 81.0191 7.56462C80.8899 7.31394 80.6737 7.14836 80.3705 7.06786C80.0765 6.9898 79.8103 7.02732 79.5719 7.18043C79.3336 7.33353 79.171 7.57068 79.0841 7.89187L77.7514 12.8198C77.6645 13.141 77.6857 13.427 77.8148 13.6776C77.944 13.9283 78.1556 14.0927 78.4496 14.1707C78.7528 14.2512 79.0236 14.2149 79.262 14.0618C79.5003 13.9087 79.663 13.6716 79.7498 13.3504L79.8429 13.0063C79.8553 12.9604 79.879 12.9273 79.914 12.9071C79.9607 12.8802 80.007 12.8728 80.0529 12.885L81.3198 13.2803C81.3657 13.2925 81.3975 13.3206 81.4152 13.3647C81.4445 13.4019 81.4529 13.4435 81.4405 13.4894L81.3959 13.6546C81.1849 14.4346 80.776 14.9998 80.1692 15.3502C79.5648 15.6913 78.8675 15.757 78.0774 15.5473Z" fill="#1A2634"/>
<path d="M93.908 10.3048C93.9518 10.3233 93.9793 10.3556 93.9907 10.4016C94.0145 10.4427 94.0171 10.485 93.9984 10.5287L93.5727 11.5254C93.5541 11.5691 93.5197 11.601 93.4698 11.6212C93.4323 11.6364 93.3917 11.6347 93.3479 11.6162L91.6794 10.9119C91.6356 10.8934 91.6044 10.9061 91.5857 10.9498L88.3204 18.5951C88.3017 18.6388 88.2674 18.6707 88.2174 18.6909C88.1799 18.706 88.1393 18.7044 88.0955 18.6859L86.8869 18.1757C86.8431 18.1572 86.8093 18.1275 86.7854 18.0864C86.7741 18.0404 86.7778 17.9955 86.7964 17.9518L90.0618 10.3065C90.0805 10.2628 90.0679 10.2317 90.0241 10.2132L88.4477 9.54776C88.4039 9.52928 88.3701 9.49953 88.3462 9.45851C88.3349 9.41245 88.3386 9.36756 88.3572 9.32385L88.7829 8.32721C88.8016 8.2835 88.8296 8.25407 88.8671 8.23894C88.9171 8.21875 88.964 8.21791 89.0078 8.23639L93.908 10.3048Z" fill="#1A2634"/>
<path d="M98.4517 25.2941C97.7888 24.8156 97.4105 24.22 97.3168 23.5076C97.2365 22.7929 97.4504 22.0856 97.9585 21.3855L102.096 15.6846C102.124 15.6461 102.158 15.6237 102.198 15.6173C102.251 15.6088 102.297 15.6185 102.336 15.6463L103.399 16.4142C103.438 16.442 103.458 16.4797 103.458 16.5271C103.472 16.5725 103.466 16.6144 103.438 16.6528L99.1992 22.4922C98.9758 22.7999 98.8714 23.1056 98.8859 23.4092C98.9005 23.7128 99.0349 23.9565 99.2893 24.1401C99.5437 24.3237 99.8177 24.375 100.111 24.294C100.405 24.2129 100.664 24.0185 100.887 23.7108L105.126 17.8714C105.154 17.833 105.187 17.8105 105.227 17.8042C105.281 17.7956 105.326 17.8053 105.365 17.8331L106.429 18.601C106.467 18.6288 106.487 18.6665 106.488 18.7139C106.502 18.7593 106.495 18.8012 106.467 18.8396L102.329 24.5405C101.821 25.2406 101.21 25.6614 100.496 25.8029C99.7884 25.9367 99.1068 25.7671 98.4517 25.2941Z" fill="#1A2634"/>
<path d="M105.689 32.6931C105.131 32.1354 104.848 31.5173 104.842 30.8388C104.835 30.1603 105.104 29.549 105.649 29.005L105.912 28.743C105.945 28.7094 105.982 28.6926 106.023 28.6927C106.076 28.6927 106.12 28.7095 106.154 28.7431L107.072 29.6602C107.105 29.6938 107.119 29.7341 107.112 29.7811C107.119 29.8281 107.105 29.8684 107.072 29.902L106.87 30.1035C106.607 30.3655 106.459 30.6409 106.426 30.9297C106.399 31.2253 106.49 31.4773 106.698 31.6855C106.907 31.8938 107.152 31.9913 107.435 31.9779C107.724 31.9578 107.993 31.8235 108.242 31.5749C108.417 31.4003 108.531 31.2122 108.585 31.0107C108.639 30.8092 108.656 30.5841 108.636 30.3356C108.615 30.087 108.565 29.7074 108.484 29.1969C108.39 28.6191 108.333 28.1321 108.313 27.7357C108.3 27.3461 108.354 26.9497 108.475 26.5467C108.609 26.1436 108.851 25.7675 109.201 25.4182C109.76 24.8607 110.372 24.5854 111.038 24.5922C111.704 24.599 112.312 24.8779 112.864 25.4288C113.422 25.9865 113.698 26.6113 113.691 27.3032C113.691 27.9885 113.405 28.6165 112.833 29.1875L112.591 29.4293C112.557 29.4628 112.513 29.4796 112.46 29.4796C112.419 29.4796 112.382 29.4628 112.349 29.4292L111.441 28.5222C111.407 28.4886 111.387 28.4483 111.38 28.4013C111.387 28.3542 111.407 28.3139 111.441 28.2803L111.703 28.0184C111.965 27.7564 112.107 27.481 112.127 27.1922C112.161 26.9033 112.07 26.6514 111.855 26.4364C111.653 26.2348 111.414 26.1441 111.138 26.1642C110.869 26.1776 110.607 26.3119 110.351 26.5671C110.109 26.8089 109.971 27.081 109.938 27.3833C109.911 27.6923 109.951 28.1961 110.058 28.8948C110.166 29.6069 110.226 30.1645 110.24 30.5676C110.26 30.9639 110.213 31.3334 110.098 31.676C109.984 32.0186 109.769 32.3477 109.452 32.6634C108.881 33.2343 108.248 33.5231 107.555 33.5297C106.869 33.5296 106.247 33.2507 105.689 32.6931Z" fill="#1A2634"/>
<path d="M116.666 45.1898C116.55 44.8879 116.519 44.5793 116.571 44.2638C116.626 43.9572 116.754 43.679 116.954 43.4292C117.153 43.1793 117.399 42.9981 117.692 42.8855C118.153 42.708 118.605 42.7177 119.047 42.9145C119.492 43.1201 119.803 43.4538 119.98 43.9154C120.153 44.3682 120.142 44.8158 119.944 45.2582C119.751 45.7095 119.423 46.0239 118.962 46.2013C118.669 46.3139 118.365 46.3442 118.05 46.2922C117.735 46.2402 117.453 46.1145 117.203 45.9151C116.957 45.7245 116.778 45.4827 116.666 45.1898Z" fill="#1A2634"/>
<path d="M117.548 60.9028C117.463 60.0992 117.636 59.4254 118.066 58.8813C118.507 58.3455 119.128 58.0339 119.932 57.9464L124.766 57.4197C125.578 57.3311 126.247 57.5022 126.77 57.9328C127.304 58.3719 127.613 58.9933 127.698 59.7968C127.784 60.6099 127.612 61.2885 127.181 61.8326C126.761 62.3757 126.144 62.6915 125.331 62.7801L125.161 62.7986C125.114 62.8038 125.069 62.7895 125.028 62.7558C124.987 62.7316 124.964 62.6958 124.959 62.6485L124.763 61.3359C124.751 61.2224 124.802 61.1595 124.915 61.1472L125.27 61.1086C125.6 61.0725 125.86 60.9486 126.048 60.7369C126.236 60.5252 126.313 60.2633 126.28 59.9513C126.248 59.6488 126.118 59.4143 125.891 59.2479C125.663 59.0815 125.383 59.0163 125.053 59.0523L119.978 59.6053C119.647 59.6413 119.388 59.7652 119.2 59.977C119.012 60.1887 118.934 60.4458 118.966 60.7484C118.998 61.0603 119.129 61.2995 119.357 61.466C119.585 61.6324 119.864 61.6976 120.195 61.6615L120.549 61.6229C120.596 61.6178 120.636 61.6278 120.667 61.6531C120.709 61.6868 120.732 61.7273 120.737 61.7746L120.82 63.0996C120.825 63.1469 120.81 63.1867 120.775 63.2192C120.751 63.2601 120.715 63.2831 120.667 63.2883L120.497 63.3068C119.694 63.3944 119.021 63.2191 118.477 62.781C117.944 62.3419 117.634 61.7159 117.548 60.9028Z" fill="#1A2634"/>
<path d="M117.666 70.2999C117.729 69.4848 118.027 68.8443 118.559 68.3782C119.091 67.9217 119.764 67.7234 120.58 67.7834L125.358 68.1351C126.173 68.1951 126.808 68.4897 127.263 69.0188C127.717 69.5574 127.912 70.2343 127.848 71.0494C127.785 71.8645 127.487 72.505 126.955 72.9711C126.423 73.4371 125.749 73.6401 124.934 73.5801L120.155 73.2284C119.34 73.1684 118.705 72.8691 118.252 72.3305C117.798 71.7919 117.602 71.115 117.666 70.2999ZM119.088 70.4046C119.063 70.7269 119.152 70.9955 119.354 71.2106C119.566 71.4264 119.852 71.5475 120.213 71.574L125.133 71.9362C125.494 71.9627 125.791 71.8845 126.024 71.7015C126.267 71.5192 126.401 71.2669 126.426 70.9447C126.451 70.6224 126.358 70.3534 126.146 70.1377C125.943 69.9321 125.661 69.816 125.301 69.7895L120.38 69.4273C120.02 69.4008 119.718 69.474 119.476 69.6468C119.243 69.8297 119.113 70.0824 119.088 70.4046Z" fill="#1A2634"/>
<path d="M125.275 83.5214C125.321 83.5337 125.354 83.5573 125.374 83.5922C125.401 83.6388 125.408 83.685 125.396 83.7308L125.054 84.9827C125.042 85.0285 125.013 85.0603 124.969 85.078C124.931 85.1073 124.89 85.1158 124.844 85.1035L115.533 82.6083C115.487 82.596 115.451 82.5665 115.424 82.52C115.404 82.4851 115.4 82.4447 115.413 82.3989L115.807 80.9544C115.832 80.8627 115.894 80.8154 115.993 80.8125L122.393 80.3278C122.423 80.326 122.437 80.3101 122.435 80.2801C122.44 80.2618 122.429 80.2489 122.401 80.2415L116.599 78.7013C116.553 78.689 116.517 78.6596 116.49 78.6131C116.47 78.5782 116.466 78.5378 116.479 78.492L116.82 77.2401C116.833 77.1942 116.858 77.1567 116.895 77.1274C116.94 77.1097 116.985 77.107 117.031 77.1193L126.342 79.6145C126.388 79.6268 126.42 79.6504 126.441 79.6853C126.467 79.7318 126.474 79.778 126.462 79.8239L126.075 81.2408C126.05 81.3326 125.988 81.3799 125.889 81.3828L119.527 81.8923C119.497 81.8941 119.479 81.9042 119.474 81.9225C119.476 81.9525 119.491 81.9712 119.518 81.9785L125.275 83.5214Z" fill="#1A2634"/>
<path d="M120.529 95.5763C120.508 95.619 120.475 95.6449 120.428 95.654C120.385 95.6757 120.343 95.6762 120.3 95.6555L119.324 95.1836C119.282 95.163 119.251 95.1272 119.234 95.0765C119.221 95.0385 119.225 94.9981 119.246 94.9554L120.041 93.3285C120.062 93.2858 120.051 93.2541 120.008 93.2334L112.524 89.6134C112.481 89.5927 112.451 89.557 112.434 89.5063C112.421 89.4683 112.424 89.4279 112.445 89.3852L113.021 88.2066C113.042 88.1639 113.074 88.1317 113.116 88.1099C113.163 88.1009 113.208 88.1067 113.251 88.1274L120.735 91.7473C120.777 91.768 120.809 91.757 120.83 91.7143L121.582 90.177C121.603 90.1343 121.634 90.1021 121.677 90.0804C121.723 90.0713 121.768 90.0771 121.811 90.0978L122.786 90.5697C122.829 90.5904 122.857 90.6198 122.87 90.6578C122.888 90.7085 122.886 90.7552 122.865 90.7979L120.529 95.5763Z" fill="#1A2634"/>
<path d="M106.895 98.1515C106.963 98.0597 107.042 98.041 107.132 98.0952L108.5 98.7636C108.538 98.7917 108.574 98.7829 108.608 98.737L109.846 97.063C109.88 97.0172 109.878 96.9802 109.84 96.952L108.794 95.848C108.715 95.7784 108.71 95.6978 108.778 95.6061L109.549 94.5627C109.628 94.4557 109.709 94.4502 109.792 94.5463L116.307 101.949C116.38 102.026 116.385 102.107 116.323 102.191L115.424 103.406C115.362 103.49 115.283 103.509 115.188 103.462L106.163 99.4536L106.117 99.4198C106.048 99.3692 106.045 99.3018 106.107 99.2178L106.895 98.1515ZM110.848 98.0109C110.815 97.9751 110.782 97.9801 110.748 98.026L109.807 99.2987C109.773 99.3446 109.778 99.3777 109.822 99.3982L113.946 101.4C113.974 101.41 113.994 101.407 114.006 101.391C114.017 101.376 114.014 101.356 113.997 101.332L110.848 98.0109Z" fill="#1A2634"/>
<path d="M101.482 103.848C102.072 103.296 102.713 103.028 103.406 103.043C104.099 103.072 104.722 103.381 105.275 103.97L108.605 107.513C109.165 108.109 109.43 108.746 109.402 109.424C109.373 110.115 109.063 110.736 108.474 111.289C107.877 111.847 107.232 112.119 106.539 112.103C105.852 112.095 105.229 111.793 104.669 111.197L104.552 111.072C104.52 111.037 104.504 110.993 104.506 110.94C104.501 110.892 104.516 110.852 104.55 110.82L105.479 109.872C105.563 109.794 105.643 109.797 105.721 109.88L105.966 110.14C106.193 110.382 106.448 110.515 106.73 110.537C107.012 110.56 107.268 110.464 107.497 110.249C107.719 110.042 107.828 109.796 107.824 109.514C107.819 109.232 107.703 108.969 107.475 108.727L103.979 105.007C103.752 104.764 103.497 104.632 103.215 104.609C102.933 104.587 102.681 104.679 102.458 104.887C102.229 105.102 102.117 105.35 102.121 105.632C102.126 105.915 102.242 106.177 102.47 106.42L102.714 106.679C102.747 106.714 102.762 106.751 102.761 106.792C102.759 106.845 102.741 106.888 102.706 106.921L101.699 107.786C101.664 107.818 101.623 107.83 101.577 107.822C101.529 107.827 101.489 107.812 101.457 107.778L101.34 107.653C100.786 107.064 100.521 106.421 100.543 105.723C100.572 105.032 100.885 104.407 101.482 103.848Z" fill="#1A2634"/>
<path d="M97.3447 119.515C97.3047 119.54 97.2624 119.545 97.2179 119.528C97.1705 119.525 97.1339 119.503 97.1082 119.463L96.5224 118.551C96.4967 118.511 96.4896 118.465 96.5011 118.413C96.5096 118.373 96.5339 118.341 96.5739 118.315L98.0979 117.337C98.1379 117.311 98.1451 117.278 98.1194 117.238L93.6258 110.244C93.6001 110.204 93.5929 110.158 93.6044 110.105C93.613 110.066 93.6373 110.033 93.6773 110.007L94.7813 109.299C94.8213 109.273 94.865 109.262 94.9124 109.265C94.9569 109.282 94.9921 109.31 95.0178 109.35L99.5114 116.345C99.5371 116.385 99.5699 116.392 99.6099 116.366L101.05 115.442C101.09 115.416 101.134 115.405 101.181 115.408C101.226 115.425 101.261 115.453 101.286 115.493L101.872 116.405C101.898 116.445 101.906 116.485 101.898 116.524C101.886 116.577 101.861 116.616 101.821 116.641L97.3447 119.515Z" fill="#1A2634"/>
<path d="M83.893 114.969C84.6814 114.753 85.3826 114.831 85.9965 115.205C86.6038 115.59 87.0211 116.2 87.2482 117.035L89.0978 123.832C89.1102 123.878 89.1065 123.918 89.0865 123.953C89.0598 124 89.0235 124.03 88.9777 124.042L87.7126 124.39C87.6668 124.402 87.6251 124.394 87.5876 124.365C87.5435 124.347 87.5151 124.316 87.5027 124.27L85.6082 117.308C85.5083 116.941 85.3355 116.668 85.0898 116.489C84.8441 116.31 84.5699 116.262 84.2674 116.345C83.9649 116.428 83.7531 116.609 83.6322 116.889C83.5113 117.169 83.5007 117.492 83.6006 117.859L85.495 124.821C85.5075 124.867 85.5038 124.908 85.4837 124.943C85.4571 124.989 85.4208 125.019 85.375 125.032L84.1099 125.379C84.064 125.392 84.0224 125.383 83.9849 125.354C83.9407 125.337 83.9124 125.305 83.8999 125.259L82.0504 118.462C81.8232 117.627 81.8781 116.888 82.215 116.243C82.5545 115.608 83.1138 115.183 83.893 114.969Z" fill="#1A2634"/>
<path d="M74.9256 116.588C75.7113 116.516 76.3666 116.694 76.8914 117.123C77.4163 117.551 77.7129 118.149 77.7811 118.916L77.8139 119.286C77.8181 119.333 77.8073 119.372 77.7814 119.403C77.747 119.445 77.706 119.467 77.6587 119.472L76.3666 119.591C76.3193 119.596 76.2797 119.58 76.2479 119.545C76.2075 119.52 76.1852 119.484 76.181 119.437L76.1558 119.153C76.1229 118.783 76.0065 118.493 75.8064 118.283C75.5969 118.073 75.3454 117.982 75.0519 118.009C74.7585 118.036 74.5263 118.162 74.3556 118.388C74.1856 118.623 74.1162 118.916 74.1474 119.267C74.1693 119.513 74.2403 119.721 74.3604 119.891C74.4805 120.062 74.6424 120.219 74.8461 120.362C75.0497 120.505 75.3733 120.709 75.8167 120.974C76.3203 121.271 76.7307 121.539 77.0477 121.777C77.3553 122.016 77.6249 122.31 77.8565 122.661C78.0795 123.023 78.2129 123.449 78.2567 123.942C78.3266 124.728 78.1456 125.375 77.7135 125.882C77.2815 126.39 76.6774 126.68 75.9011 126.752C75.1155 126.824 74.4593 126.637 73.9328 126.189C73.407 125.751 73.1084 125.129 73.0368 124.324L73.0065 123.983C73.0023 123.936 73.0174 123.892 73.0519 123.85C73.0778 123.819 73.1144 123.802 73.1617 123.797L74.4396 123.679C74.4869 123.675 74.5308 123.685 74.5712 123.71C74.603 123.745 74.621 123.786 74.6252 123.834L74.658 124.203C74.6909 124.572 74.8116 124.857 75.0203 125.057C75.2204 125.268 75.4719 125.359 75.7748 125.331C76.0588 125.305 76.2814 125.179 76.4428 124.954C76.6049 124.739 76.67 124.451 76.638 124.091C76.6077 123.751 76.4873 123.471 76.277 123.251C76.0571 123.033 75.6447 122.742 75.0397 122.378C74.4243 122.005 73.9577 121.695 73.6399 121.447C73.3228 121.209 73.0695 120.937 72.88 120.63C72.6904 120.323 72.5758 119.947 72.5362 119.502C72.4647 118.697 72.6483 118.026 73.0873 117.489C73.5271 116.961 74.1399 116.661 74.9256 116.588Z" fill="#1A2634"/>
<path d="M61.7547 119.933C62.0706 120.001 62.3458 120.143 62.5804 120.359C62.8056 120.574 62.9674 120.832 63.0658 121.136C63.1642 121.439 63.1795 121.744 63.1117 122.05C63.0049 122.533 62.7473 122.905 62.3388 123.167C61.9211 123.427 61.4707 123.504 60.9875 123.4C60.5137 123.297 60.1465 123.042 59.8859 122.636C59.6161 122.227 59.5346 121.782 59.6414 121.299C59.7092 120.993 59.8518 120.722 60.0694 120.487C60.2869 120.252 60.5478 120.085 60.8522 119.985C61.1473 119.884 61.4481 119.866 61.7547 119.933Z" fill="#1A2634"/>
</svg>
