<svg width="188" height="188" viewBox="0 0 188 188" fill="none" xmlns="http://www.w3.org/2000/svg">
<path d="M45.2411 41.2526C45.1131 41.3734 44.9883 41.3802 44.8668 41.2731L42.9749 39.8823C42.9245 39.829 42.8673 39.8326 42.8033 39.893L40.4673 42.0976C40.4033 42.158 40.3965 42.2148 40.4469 42.2681L41.7308 44.2327C41.831 44.3599 41.8172 44.484 41.6892 44.6048L40.2332 45.9789C40.0839 46.1198 39.9597 46.1059 39.8606 45.9372L32.0056 32.9012C31.916 32.7639 31.9299 32.6399 32.0472 32.5291L33.7432 30.9285C33.8605 30.8178 33.9853 30.811 34.1175 30.908L46.7085 39.4745L46.769 39.5384C46.8597 39.6342 46.8464 39.7375 46.7291 39.8483L45.2411 41.2526ZM39.2075 40.3825C39.2473 40.4458 39.2991 40.4473 39.3631 40.3869L41.1391 38.7108C41.2031 38.6504 41.2046 38.5986 41.1435 38.5554L35.4367 34.3821C35.3958 34.3602 35.3647 34.3593 35.3433 34.3795C35.322 34.3996 35.3211 34.4307 35.3407 34.4727L39.2075 40.3825Z" fill="#1A2634"/>
<path d="M54.3159 34.1033C54.1789 34.1884 54.0553 34.1703 53.945 34.0489L43.4039 23.0904L43.3386 23.0274C43.2688 22.9154 43.3023 22.8168 43.4394 22.7316L45.3264 21.5585C45.4759 21.4656 45.5996 21.4837 45.6974 21.6128L52.8475 29.628C52.8832 29.6576 52.9136 29.6647 52.9385 29.6492C52.9634 29.6337 52.9704 29.6034 52.9596 29.5583L48.8737 19.6383C48.8008 19.4936 48.839 19.3749 48.9885 19.2819L50.8195 18.1437C50.9815 18.043 51.0942 18.0852 51.1577 18.2702L56.3365 32.5622C56.397 32.7146 56.3587 32.8334 56.2217 32.9185L54.3159 34.1033Z" fill="#1A2634"/>
<path d="M69.6912 26.4183C69.5262 26.4796 69.4087 26.4373 69.3385 26.2913L68.1391 24.2727C68.1135 24.204 68.0594 24.185 67.977 24.2157L64.9664 25.3352C64.8839 25.3659 64.8555 25.4155 64.8811 25.4843L65.2969 27.7942C65.3396 27.9504 65.2784 28.0592 65.1135 28.1206L63.237 28.8184C63.0445 28.8899 62.9356 28.8287 62.9102 28.6348L60.7626 13.5664C60.7337 13.405 60.7948 13.2962 60.946 13.24L63.1318 12.4272C63.283 12.371 63.4006 12.4133 63.4845 12.5542L71.7357 25.3529L71.7665 25.4353C71.8127 25.559 71.7601 25.649 71.6089 25.7052L69.6912 26.4183ZM64.4754 23.2644C64.4873 23.3383 64.5345 23.3598 64.617 23.3292L66.9059 22.478C66.9884 22.4474 67.0099 22.4002 66.9705 22.3366L63.344 16.2681C63.3149 16.232 63.2866 16.219 63.2591 16.2292C63.2316 16.2395 63.2187 16.2678 63.2203 16.3141L64.4754 23.2644Z" fill="#1A2634"/>
<path d="M78.5958 23.8493C78.524 23.8643 78.4548 23.8563 78.3884 23.8252C78.3333 23.7768 78.2982 23.7167 78.2831 23.6449L75.2298 9.08972C75.2148 9.01794 75.2243 8.95603 75.2583 8.90397C75.3037 8.83455 75.3623 8.79235 75.434 8.77735L77.4153 8.36346C77.4871 8.34847 77.5505 8.36518 77.6056 8.4136C77.6721 8.44466 77.7128 8.49608 77.7279 8.56785L80.7812 23.1231C80.7963 23.1948 80.7811 23.2654 80.7357 23.3348C80.7017 23.3869 80.6488 23.4204 80.577 23.4354L78.5958 23.8493Z" fill="#1A2634"/>
<path d="M84.9613 22.6618C84.8882 22.6675 84.8207 22.6506 84.7588 22.6113C84.7103 22.5562 84.6833 22.4921 84.6776 22.419L83.521 7.59203C83.5153 7.51892 83.5327 7.45873 83.5731 7.41146C83.627 7.34844 83.6906 7.31409 83.7637 7.30843L85.7816 7.15204C85.8547 7.14638 85.9155 7.17109 85.9639 7.22618C86.0258 7.26551 86.0597 7.32174 86.0654 7.39485L87.0628 20.182C87.0685 20.2551 87.1079 20.2888 87.181 20.2832L91.9188 19.916C91.992 19.9103 92.0527 19.9351 92.1012 19.9901C92.1631 20.0295 92.1969 20.0857 92.2026 20.1588L92.3326 21.8257C92.3383 21.8989 92.3142 21.9669 92.2603 22.0299C92.2198 22.0772 92.163 22.1037 92.0899 22.1093L84.9613 22.6618Z" fill="#1A2634"/>
<path d="M102.609 22.6753C102.434 22.6562 102.348 22.5657 102.351 22.4037L102.185 20.0621C102.193 19.9892 102.154 19.948 102.066 19.9384L98.873 19.591C98.7855 19.5815 98.7378 19.6132 98.7298 19.6861L98.0644 21.9373C98.0323 22.0961 97.9288 22.166 97.7539 22.1469L95.7636 21.9303C95.5595 21.9081 95.4896 21.8046 95.554 21.6198L100.4 7.18738C100.447 7.03017 100.55 6.96029 100.71 6.97774L103.029 7.23001C103.189 7.24746 103.275 7.33797 103.287 7.50153L104.915 22.6384L104.905 22.7259C104.891 22.8572 104.804 22.914 104.643 22.8966L102.609 22.6753ZM99.3639 17.5199C99.3414 17.5913 99.3739 17.6317 99.4614 17.6412L101.889 17.9054C101.977 17.9149 102.017 17.8824 102.01 17.8079L101.494 10.7587C101.484 10.7134 101.465 10.6891 101.436 10.6859C101.406 10.6828 101.382 10.7023 101.363 10.7444L99.3639 17.5199Z" fill="#1A2634"/>
<path d="M120.494 22.5875C120.084 23.8729 119.39 24.7447 118.412 25.2029C117.448 25.6656 116.366 25.7055 115.164 25.3226L111.475 24.1473C111.405 24.125 111.349 24.084 111.306 24.0243C111.282 23.955 111.281 23.8855 111.303 23.8156L115.826 9.64795C115.848 9.57809 115.887 9.52888 115.942 9.50032C116.016 9.46224 116.088 9.45433 116.158 9.47659L119.47 10.5317C120.797 10.9547 121.731 11.6217 122.272 12.5327C122.812 13.4438 122.878 14.542 122.467 15.8275C122.008 17.2666 121.17 18.131 119.954 18.4208C119.87 18.4405 119.843 18.4779 119.871 18.5332C120.305 19.0561 120.582 19.66 120.702 20.3448C120.822 21.0295 120.753 21.7771 120.494 22.5875ZM117.774 12.3003C117.704 12.278 117.658 12.3018 117.635 12.3717L116.391 16.2699C116.369 16.3398 116.392 16.3858 116.462 16.4081L117.531 16.7487C118.104 16.9312 118.607 16.899 119.04 16.6521C119.473 16.4052 119.792 15.9604 119.997 15.3177C120.211 14.647 120.216 14.0789 120.01 13.6132C119.805 13.1475 119.416 12.8234 118.843 12.6409L117.774 12.3003ZM115.651 23.1457C116.21 23.3238 116.713 23.2684 117.159 22.9796C117.605 22.6908 117.942 22.1901 118.17 21.4775C118.401 20.751 118.421 20.1339 118.229 19.6263C118.042 19.1048 117.668 18.7549 117.109 18.5769L115.894 18.1895C115.824 18.1673 115.778 18.1911 115.755 18.2609L114.364 22.6202C114.342 22.6901 114.365 22.7361 114.435 22.7584L115.651 23.1457Z" fill="#1A2634"/>
<path d="M124.628 28.8728C124.563 28.8385 124.515 28.7882 124.484 28.7218C124.472 28.6494 124.484 28.5808 124.518 28.516L131.488 15.3786C131.523 15.3138 131.57 15.2723 131.629 15.2541C131.709 15.2297 131.781 15.2347 131.845 15.269L133.634 16.2167C133.699 16.2511 133.737 16.3044 133.748 16.3769C133.779 16.4432 133.778 16.5088 133.743 16.5735L127.732 27.9036C127.698 27.9683 127.713 28.0179 127.778 28.0522L131.977 30.2772C132.041 30.3116 132.079 30.3649 132.091 30.4374C132.122 30.5037 132.12 30.5693 132.086 30.634L131.302 32.111C131.268 32.1758 131.211 32.2204 131.132 32.2447C131.072 32.263 131.01 32.255 130.945 32.2206L124.628 28.8728Z" fill="#1A2634"/>
<path d="M149.007 28.6185C148.962 28.6763 148.898 28.7103 148.816 28.7204C148.754 28.728 148.694 28.7093 148.636 28.6642L144.888 25.7426C144.831 25.6975 144.779 25.7039 144.734 25.7616L142.173 29.0376C142.128 29.0954 142.134 29.1468 142.192 29.1919L144.413 30.9232C144.471 30.9683 144.499 31.0275 144.498 31.1008C144.517 31.1715 144.504 31.2358 144.459 31.2935L143.416 32.6282C143.37 32.686 143.307 32.7199 143.224 32.7301C143.162 32.7377 143.103 32.719 143.045 32.6739L140.824 30.9425C140.766 30.8975 140.715 30.9038 140.669 30.9616L138.095 34.2549C138.05 34.3127 138.056 34.3641 138.114 34.4092L141.862 37.3308C141.92 37.3759 141.948 37.4351 141.947 37.5083C141.966 37.5791 141.953 37.6433 141.908 37.7011L140.878 39.0184C140.833 39.0762 140.769 39.1102 140.687 39.1203C140.625 39.1279 140.565 39.1092 140.507 39.0641L134.868 34.6682C134.81 34.6231 134.772 34.5652 134.753 34.4944C134.754 34.4211 134.777 34.3556 134.822 34.2978L143.981 22.5806C144.026 22.5229 144.08 22.4902 144.142 22.4825C144.224 22.4724 144.294 22.4899 144.352 22.535L149.991 26.9309C150.049 26.976 150.077 27.0352 150.076 27.1084C150.095 27.1792 150.082 27.2434 150.037 27.3012L149.007 28.6185Z" fill="#1A2634"/>
<path d="M165.906 47.7333C165.846 47.7753 165.775 47.7892 165.693 47.7748C165.632 47.764 165.58 47.7286 165.538 47.6685L162.821 43.7966C162.779 43.7365 162.728 43.7275 162.668 43.7696L159.261 46.1529C159.201 46.195 159.192 46.246 159.234 46.306L160.839 48.5932C160.881 48.6532 160.89 48.7181 160.868 48.7877C160.865 48.8609 160.834 48.9186 160.774 48.9606L159.386 49.9316C159.326 49.9737 159.255 49.9875 159.173 49.9731C159.112 49.9623 159.06 49.9269 159.018 49.8668L157.413 47.5797C157.371 47.5196 157.32 47.5106 157.26 47.5527L152.158 51.1214C152.098 51.1634 152.027 51.1773 151.945 51.1629C151.884 51.1521 151.832 51.1167 151.79 51.0566L150.628 49.3998C150.586 49.3398 150.566 49.2731 150.568 49.1999C150.591 49.1302 150.632 49.0744 150.692 49.0323L162.879 40.5077C162.939 40.4657 162.999 40.4501 163.061 40.4609C163.143 40.4753 163.205 40.5125 163.247 40.5725L167.341 46.4075C167.383 46.4675 167.392 46.5324 167.37 46.602C167.367 46.6753 167.336 46.7329 167.276 46.7749L165.906 47.7333Z" fill="#1A2634"/>
<path d="M159.025 63.3817C158.528 62.2221 158.478 61.1354 158.874 60.1215C159.276 59.1212 160.056 58.3737 161.217 57.879L168.016 54.9796C169.177 54.4849 170.258 54.4385 171.259 54.8406C172.266 55.2561 173.018 56.0437 173.514 57.2034C174.01 58.363 174.061 59.4498 173.665 60.4636C173.269 61.4774 172.491 62.2317 171.331 62.7264L164.531 65.6257C163.371 66.1205 162.287 66.1601 161.28 65.7445C160.272 65.329 159.521 64.5414 159.025 63.3817ZM161.048 62.5188C161.244 62.9773 161.558 63.282 161.99 63.4328C162.435 63.5779 162.913 63.5412 163.426 63.3226L170.428 60.337C170.941 60.1184 171.292 59.8013 171.481 59.3858C171.683 58.9646 171.687 58.5247 171.491 58.0663C171.294 57.6078 170.974 57.306 170.529 57.1609C170.103 57.0235 169.634 57.0641 169.121 57.2828L162.119 60.2684C161.607 60.487 161.246 60.8002 161.038 61.2079C160.849 61.6234 160.852 62.0604 161.048 62.5188Z" fill="#1A2634"/>
<path d="M164.96 81.6175C164.933 81.4735 164.987 81.3661 165.123 81.2954L170.972 78.2747C171.025 78.2349 171.046 78.1934 171.038 78.1502L170.819 77.005C170.805 76.933 170.762 76.9039 170.69 76.9176L164.553 78.0894C164.481 78.1031 164.41 78.0867 164.342 78.0401C164.29 78.0051 164.257 77.9516 164.244 77.8796L163.863 75.8918C163.849 75.8198 163.858 75.7509 163.89 75.685C163.939 75.6308 164 75.5968 164.072 75.583L178.68 72.7939C178.752 72.7802 178.814 72.7908 178.866 72.8257C178.934 72.8724 178.975 72.9317 178.989 73.0037L179.768 77.0657C179.915 77.8291 179.856 78.5347 179.592 79.1824C179.345 79.8417 178.913 80.3945 178.297 80.8406C177.698 81.2985 176.966 81.6099 176.101 81.7749C175.208 81.9455 174.404 81.9198 173.69 81.6978C172.975 81.4759 172.393 81.0869 171.943 80.5308C171.917 80.4759 171.87 80.4626 171.801 80.4907L165.702 83.85C165.676 83.8699 165.641 83.884 165.598 83.8923C165.469 83.917 165.389 83.8502 165.358 83.6917L164.96 81.6175ZM177.28 75.7714C177.266 75.6994 177.223 75.6702 177.151 75.684L172.851 76.505C172.779 76.5188 172.75 76.5617 172.763 76.6337L173.016 77.9517C173.116 78.4702 173.397 78.8495 173.862 79.0893C174.328 79.3436 174.908 79.4047 175.599 79.2727C176.291 79.1407 176.806 78.8705 177.146 78.4622C177.503 78.0655 177.632 77.6079 177.533 77.0894L177.28 75.7714Z" fill="#1A2634"/>
<path d="M169.031 100.173C169.076 99.6763 169.242 99.2274 169.528 98.8262C169.813 98.4395 170.179 98.1412 170.625 97.931C171.071 97.7209 171.535 97.6376 172.017 97.681C172.777 97.7495 173.396 98.0704 173.874 98.6436C174.351 99.2315 174.556 99.9052 174.487 100.665C174.42 101.41 174.1 102.022 173.526 102.5C172.952 102.993 172.285 103.205 171.525 103.137C171.043 103.093 170.601 102.928 170.2 102.642C169.799 102.355 169.493 101.989 169.283 101.543C169.072 101.112 168.988 100.655 169.031 100.173Z" fill="#1A2634"/>
<path d="M172.808 127.225C172.739 127.199 172.688 127.148 172.654 127.072C172.628 127.016 172.628 126.953 172.654 126.884L174.33 122.461C174.356 122.393 174.335 122.345 174.266 122.319L170.377 120.849C170.308 120.823 170.261 120.845 170.235 120.913L169.245 123.526C169.219 123.595 169.171 123.639 169.1 123.659C169.039 123.699 168.973 123.705 168.905 123.679L167.32 123.08C167.251 123.055 167.2 123.004 167.166 122.928C167.14 122.871 167.141 122.809 167.167 122.74L168.156 120.127C168.182 120.059 168.161 120.012 168.093 119.986L162.269 117.784C162.2 117.758 162.149 117.707 162.115 117.632C162.089 117.575 162.089 117.513 162.115 117.444L162.832 115.551C162.858 115.483 162.902 115.429 162.964 115.389C163.035 115.369 163.104 115.372 163.173 115.398L177.084 120.656C177.153 120.682 177.2 120.724 177.225 120.78C177.259 120.856 177.264 120.928 177.238 120.997L174.712 127.662C174.686 127.731 174.638 127.775 174.568 127.796C174.506 127.835 174.44 127.842 174.372 127.816L172.808 127.225Z" fill="#1A2634"/>
<path d="M154.902 132.368C154.978 132.243 155.091 132.2 155.239 132.239L161.606 133.928C161.671 133.934 161.715 133.918 161.738 133.88L162.346 132.885C162.384 132.822 162.372 132.772 162.309 132.734L156.974 129.483C156.911 129.445 156.87 129.385 156.851 129.305C156.836 129.244 156.848 129.183 156.886 129.12L157.941 127.393C157.979 127.33 158.032 127.286 158.1 127.258C158.174 127.251 158.241 127.267 158.304 127.305L171.004 135.043C171.067 135.081 171.106 135.13 171.12 135.191C171.14 135.272 171.13 135.343 171.092 135.406L168.936 138.935C168.531 139.599 168.013 140.082 167.381 140.384C166.755 140.706 166.063 140.826 165.306 140.742C164.554 140.679 163.802 140.419 163.051 139.961C162.274 139.488 161.696 138.929 161.316 138.285C160.936 137.642 160.766 136.963 160.807 136.249C160.825 136.192 160.799 136.15 160.728 136.124L153.949 134.519C153.917 134.516 153.882 134.503 153.844 134.48C153.731 134.412 153.717 134.308 153.801 134.171L154.902 132.368ZM167.963 136.307C168.002 136.245 167.989 136.195 167.927 136.156L164.188 133.878C164.126 133.84 164.075 133.853 164.037 133.915L163.337 135.06C163.062 135.511 163.016 135.981 163.198 136.47C163.373 136.971 163.761 137.405 164.362 137.772C164.964 138.138 165.527 138.284 166.054 138.21C166.585 138.156 166.989 137.903 167.264 137.453L167.963 136.307Z" fill="#1A2634"/>
<path d="M155.287 153.538C155.233 153.489 155.203 153.423 155.199 153.34C155.196 153.278 155.22 153.22 155.269 153.165L158.466 149.65C158.516 149.596 158.513 149.544 158.459 149.494L155.379 146.701C155.324 146.652 155.273 146.654 155.223 146.709L153.329 148.792C153.279 148.846 153.218 148.87 153.145 148.863C153.073 148.877 153.01 148.859 152.955 148.81L151.701 147.672C151.646 147.622 151.617 147.556 151.613 147.474C151.61 147.412 151.633 147.353 151.683 147.299L153.577 145.216C153.627 145.162 153.624 145.11 153.57 145.061L150.474 142.252C150.419 142.203 150.368 142.206 150.318 142.26L147.121 145.775C147.072 145.83 147.01 145.853 146.937 145.846C146.865 145.86 146.802 145.843 146.748 145.793L145.509 144.67C145.455 144.621 145.426 144.555 145.422 144.472C145.419 144.41 145.442 144.352 145.491 144.297L150.302 139.008C150.351 138.954 150.412 138.92 150.484 138.906C150.557 138.913 150.621 138.941 150.675 138.99L161.691 148.981C161.746 149.03 161.774 149.086 161.777 149.148C161.781 149.231 161.759 149.299 161.709 149.354L156.899 154.643C156.849 154.698 156.788 154.721 156.715 154.714C156.643 154.728 156.58 154.71 156.525 154.661L155.287 153.538Z" fill="#1A2634"/>
<path d="M143.204 163.803C143.16 163.745 143.144 163.674 143.155 163.592C143.164 163.531 143.197 163.478 143.256 163.434L147.048 160.57C147.106 160.526 147.114 160.475 147.069 160.416L144.559 157.101C144.515 157.043 144.463 157.036 144.405 157.08L142.158 158.777C142.099 158.821 142.034 158.833 141.964 158.813C141.891 158.813 141.832 158.784 141.787 158.725L140.765 157.375C140.72 157.317 140.704 157.246 140.715 157.164C140.724 157.103 140.757 157.05 140.816 157.006L143.063 155.309C143.122 155.264 143.129 155.213 143.085 155.155L140.561 151.822C140.517 151.764 140.465 151.757 140.407 151.801L136.615 154.665C136.556 154.709 136.491 154.721 136.421 154.7C136.348 154.701 136.289 154.672 136.244 154.613L135.235 153.28C135.191 153.222 135.174 153.152 135.186 153.069C135.194 153.008 135.228 152.955 135.286 152.911L140.992 148.602C141.051 148.558 141.117 148.536 141.19 148.535C141.261 148.556 141.318 148.595 141.362 148.654L150.341 160.509C150.385 160.568 150.403 160.628 150.395 160.689C150.383 160.771 150.348 160.835 150.29 160.879L144.584 165.187C144.525 165.232 144.461 165.244 144.39 165.223C144.317 165.224 144.258 165.194 144.214 165.136L143.204 163.803Z" fill="#1A2634"/>
<path d="M129.99 156.302C130.055 156.269 130.124 156.259 130.196 156.271C130.262 156.304 130.312 156.352 130.345 156.418L137.118 169.658C137.152 169.723 137.159 169.785 137.14 169.844C137.114 169.923 137.069 169.979 137.003 170.013L135.2 170.932C135.135 170.965 135.069 170.966 135.003 170.934C134.931 170.921 134.878 170.882 134.845 170.817L129.003 159.398C128.97 159.333 128.921 159.317 128.855 159.35L124.622 161.509C124.557 161.542 124.491 161.543 124.425 161.511C124.353 161.498 124.3 161.459 124.267 161.394L123.505 159.905C123.472 159.84 123.468 159.768 123.493 159.689C123.512 159.63 123.555 159.584 123.62 159.55L129.99 156.302Z" fill="#1A2634"/>
<path d="M113.691 163.062C113.86 163.012 113.974 163.063 114.034 163.214L115.088 165.311C115.109 165.382 115.162 165.405 115.246 165.38L118.328 164.475C118.412 164.45 118.444 164.402 118.424 164.332L118.171 161.998C118.14 161.839 118.208 161.735 118.377 161.686L120.298 161.121C120.495 161.063 120.599 161.132 120.611 161.327L121.693 176.51C121.71 176.673 121.642 176.777 121.487 176.823L119.249 177.48C119.095 177.525 118.98 177.475 118.907 177.328L111.577 163.981L111.552 163.897C111.515 163.77 111.573 163.684 111.728 163.639L113.691 163.062ZM118.672 166.575C118.665 166.5 118.62 166.475 118.535 166.5L116.192 167.188C116.108 167.213 116.083 167.259 116.118 167.325L119.308 173.634C119.335 173.672 119.362 173.687 119.39 173.678C119.418 173.67 119.433 173.643 119.435 173.596L118.672 166.575Z" fill="#1A2634"/>
<path d="M100.217 180.691C100.223 180.764 100.205 180.825 100.165 180.872C100.111 180.935 100.048 180.969 99.9744 180.975L97.9786 181.132C97.9055 181.138 97.8447 181.113 97.7962 181.058C97.7342 181.019 97.7004 180.963 97.6946 180.89L96.5213 166.064C96.5155 165.991 96.5395 165.923 96.5934 165.86C96.6338 165.812 96.6905 165.786 96.7636 165.78L99.0665 165.599C99.2127 165.587 99.3135 165.653 99.369 165.796L103.373 174.838C103.391 174.88 103.421 174.893 103.464 174.875C103.493 174.872 103.506 174.849 103.503 174.805L102.75 165.574C102.744 165.501 102.768 165.433 102.822 165.37C102.863 165.322 102.919 165.296 102.992 165.29L104.988 165.133C105.061 165.127 105.129 165.144 105.191 165.183C105.239 165.238 105.266 165.302 105.272 165.375L106.446 180.201C106.451 180.274 106.434 180.334 106.394 180.382C106.34 180.445 106.276 180.479 106.203 180.485L103.944 180.663C103.798 180.674 103.697 180.609 103.642 180.466L99.6211 171.492C99.603 171.449 99.5794 171.429 99.5501 171.431C99.5074 171.449 99.4878 171.48 99.4913 171.524L100.217 180.691Z" fill="#1A2634"/>
<path d="M86.5617 165.223C87.7969 165.392 88.7416 165.898 89.3959 166.743C90.0338 167.6 90.2682 168.646 90.0994 169.881L89.0833 177.314C88.9125 178.564 88.4068 179.501 87.5664 180.126C86.7095 180.764 85.6634 180.999 84.4282 180.83C83.1785 180.659 82.2265 180.151 81.5722 179.307C80.9159 178.477 80.6731 177.437 80.8439 176.188L80.8797 175.926C80.8896 175.853 80.9276 175.792 80.9937 175.742C81.0452 175.69 81.1073 175.669 81.18 175.678L83.2191 175.868C83.3935 175.892 83.4687 175.991 83.4449 176.166L83.3704 176.711C83.3009 177.219 83.3896 177.653 83.6365 178.013C83.8834 178.372 84.2467 178.585 84.7262 178.65C85.1912 178.714 85.5909 178.606 85.9252 178.326C86.2595 178.046 86.4615 177.651 86.531 177.143L87.5977 169.339C87.6673 168.831 87.5786 168.397 87.3316 168.037C87.0847 167.678 86.7287 167.466 86.2637 167.403C85.7842 167.337 85.3772 167.444 85.0429 167.724C84.7086 168.004 84.5066 168.399 84.4371 168.907L84.3626 169.452C84.3527 169.525 84.323 169.58 84.2734 169.618C84.2073 169.668 84.138 169.688 84.0653 169.678L82.0501 169.314C81.9774 169.304 81.9233 169.267 81.8876 169.203C81.8354 169.151 81.8143 169.089 81.8243 169.016L81.86 168.755C82.0289 167.52 82.5428 166.576 83.4017 165.923C84.2586 165.286 85.312 165.052 86.5617 165.223Z" fill="#1A2634"/>
<path d="M62.8178 173.349C62.8422 173.28 62.8919 173.228 62.9668 173.192C63.023 173.165 63.0856 173.164 63.1548 173.188L67.6357 174.77C67.7048 174.795 67.7516 174.772 67.7761 174.703L69.163 170.783C69.1875 170.714 69.1651 170.667 69.096 170.643L66.4406 169.705C66.3715 169.681 66.3259 169.634 66.304 169.564C66.2634 169.503 66.2553 169.438 66.2797 169.369L66.8448 167.772C66.8692 167.702 66.9189 167.65 66.9938 167.614C67.0499 167.587 67.1126 167.586 67.1818 167.611L69.8371 168.548C69.9063 168.573 69.9531 168.55 69.9775 168.481L71.3718 164.54C71.3962 164.471 71.3739 164.425 71.3047 164.4L66.8238 162.818C66.7547 162.794 66.7091 162.746 66.6872 162.677C66.6466 162.616 66.6385 162.55 66.6629 162.481L67.2206 160.905C67.2451 160.836 67.2948 160.783 67.3696 160.748C67.4258 160.721 67.4885 160.72 67.5576 160.744L74.2997 163.124C74.3689 163.149 74.4238 163.192 74.4644 163.253C74.4863 163.323 74.4851 163.392 74.4606 163.461L69.5001 177.482C69.4756 177.551 69.4353 177.599 69.3791 177.626C69.3042 177.661 69.2322 177.667 69.1631 177.643L62.421 175.262C62.3518 175.238 62.3063 175.191 62.2844 175.121C62.2437 175.06 62.2356 174.995 62.2601 174.925L62.8178 173.349Z" fill="#1A2634"/>
<path d="M54.5275 153.913C54.5884 153.954 54.6308 154.01 54.6548 154.079C54.6584 154.152 54.6397 154.219 54.5986 154.28L46.2715 166.602C46.2304 166.663 46.1794 166.699 46.1182 166.711C46.0367 166.727 45.9656 166.714 45.9048 166.673L44.2264 165.542C44.1656 165.501 44.1334 165.444 44.1298 165.371C44.1058 165.301 44.1143 165.236 44.1553 165.176L52.4825 152.853C52.5235 152.793 52.5848 152.754 52.6663 152.738C52.7274 152.727 52.7884 152.741 52.8492 152.782L54.5275 153.913Z" fill="#1A2634"/>
<path d="M34.6028 157.422C34.5531 157.476 34.4972 157.504 34.435 157.507C34.352 157.51 34.2835 157.487 34.2295 157.437L32.7555 156.083C32.7015 156.033 32.6782 155.972 32.6855 155.899C32.6722 155.827 32.6903 155.764 32.74 155.71L42.8185 144.774C42.8682 144.72 42.9345 144.691 43.0175 144.688C43.0797 144.685 43.1378 144.709 43.1918 144.758L44.8926 146.321C45.0006 146.421 45.0211 146.539 44.9541 146.677L41.0462 155.754C41.0272 155.797 41.0389 155.827 41.0812 155.846C41.1028 155.866 41.1285 155.86 41.1583 155.827L47.4188 149.002C47.4685 148.948 47.5349 148.919 47.6178 148.916C47.68 148.913 47.7381 148.937 47.7921 148.986L49.2662 150.341C49.3202 150.39 49.3539 150.451 49.3672 150.523C49.3599 150.596 49.3314 150.66 49.2817 150.714L39.2032 161.65C39.1535 161.704 39.0975 161.732 39.0353 161.735C38.9523 161.738 38.8839 161.715 38.8299 161.665L37.1614 160.132C37.0535 160.033 37.033 159.914 37.1 159.777L40.9469 150.733C40.9659 150.691 40.9646 150.659 40.943 150.64C40.9007 150.621 40.8646 150.627 40.8348 150.66L34.6028 157.422Z" fill="#1A2634"/>
<path d="M23.7395 145.969C23.0379 144.956 22.8 143.917 23.0258 142.852C23.2515 141.787 23.8893 140.892 24.9393 140.167L30.8407 136.091C31.6734 135.516 32.5293 135.219 33.4083 135.201C34.2753 135.19 35.0595 135.459 35.7612 136.009C35.8067 136.048 35.8535 136.052 35.9018 136.018L37.4948 134.918C37.5552 134.877 37.6201 134.867 37.6898 134.891C37.7631 134.893 37.8206 134.925 37.8624 134.985L39.0149 136.649C39.0567 136.709 39.0701 136.78 39.0553 136.862C39.0441 136.923 39.0084 136.974 38.948 137.016L37.355 138.116C37.3068 138.15 37.2933 138.195 37.3146 138.251C37.5614 139.097 37.5269 139.923 37.2112 140.729C36.8954 141.535 36.3212 142.226 35.4885 142.801L29.5871 146.877C28.5371 147.602 27.4734 147.882 26.3957 147.717C25.3181 147.552 24.4327 146.969 23.7395 145.969ZM26.1753 142.415C25.7287 142.723 25.4502 143.094 25.3397 143.527C25.2208 143.948 25.2908 144.345 25.5497 144.719C25.8086 145.092 26.1562 145.298 26.5925 145.335C27.0287 145.373 27.4701 145.237 27.9166 144.929L34.2525 140.553C34.699 140.245 34.9817 139.88 35.1006 139.459C35.2195 139.039 35.1495 138.641 34.8906 138.268C34.6317 137.894 34.2841 137.688 33.8478 137.651C33.4032 137.601 32.9577 137.731 32.5111 138.039L26.1753 142.415Z" fill="#1A2634"/>
<path d="M28.0983 122.077C28.5707 123.247 28.5757 124.336 28.1131 125.344C27.6314 126.344 26.7715 127.094 25.5334 127.592L15.4518 131.651C15.3838 131.679 15.3211 131.68 15.2638 131.656C15.1874 131.623 15.1355 131.573 15.108 131.505L14.3499 129.628C14.3224 129.56 14.3276 129.495 14.3656 129.432C14.3844 129.362 14.4279 129.312 14.4959 129.285L24.8223 125.127C25.3665 124.908 25.7538 124.594 25.984 124.185C26.2143 123.776 26.2388 123.348 26.0575 122.899C25.8762 122.45 25.5605 122.158 25.1105 122.023C24.6605 121.888 24.1634 121.93 23.6192 122.149L13.2927 126.307C13.2247 126.334 13.162 126.336 13.1047 126.311C13.0283 126.279 12.9764 126.229 12.9489 126.161L12.1908 124.284C12.1633 124.216 12.1685 124.151 12.2065 124.088C12.2253 124.017 12.2687 123.968 12.3368 123.941L22.4183 119.882C23.6564 119.383 24.7992 119.334 25.8468 119.735C26.8808 120.14 27.6313 120.921 28.0983 122.077Z" fill="#1A2634"/>
<path d="M24.3015 111.306C24.3185 111.377 24.3124 111.446 24.2831 111.513C24.2362 111.57 24.1771 111.606 24.1057 111.623L9.63451 115.053C9.56316 115.07 9.50098 115.062 9.44798 115.029C9.37732 114.985 9.3335 114.928 9.31652 114.857L8.84805 112.888C8.83107 112.816 8.84604 112.752 8.89294 112.696C8.92218 112.629 8.97247 112.587 9.04383 112.57L23.515 109.141C23.5864 109.124 23.6574 109.137 23.7281 109.181C23.7811 109.213 23.8161 109.265 23.833 109.337L24.3015 111.306Z" fill="#1A2634"/>
<path d="M22.3587 98.2635C22.3719 98.4096 22.3075 98.5111 22.1654 98.5681L16.0454 100.997C15.9897 101.031 15.9638 101.07 15.9677 101.114L16.0729 102.276C16.0795 102.349 16.1193 102.382 16.1923 102.375L22.4151 101.815C22.4882 101.808 22.5566 101.831 22.6203 101.885C22.6681 101.924 22.6953 101.981 22.7019 102.054L22.8844 104.07C22.891 104.143 22.875 104.21 22.8365 104.273C22.782 104.322 22.7183 104.35 22.6453 104.356L7.83321 105.69C7.76017 105.697 7.69976 105.68 7.65197 105.641C7.58825 105.587 7.55308 105.524 7.54647 105.451L7.17353 101.332C7.10344 100.558 7.23185 99.8616 7.55874 99.2431C7.86971 98.6113 8.35392 98.1038 9.01138 97.7206C9.65291 97.3241 10.4119 97.0864 11.2884 97.0075C12.194 96.9259 12.9914 97.0308 13.6805 97.3222C14.3696 97.6135 14.9105 98.0581 15.3034 98.656C15.3232 98.7131 15.3691 98.731 15.4408 98.7099L21.8417 95.9686C21.8696 95.9514 21.9054 95.9408 21.9492 95.9368C22.0807 95.925 22.1537 95.9994 22.1683 96.1601L22.3587 98.2635ZM9.52138 102.866C9.52799 102.939 9.56781 102.972 9.64085 102.965L14.0012 102.573C14.0742 102.566 14.1075 102.526 14.1008 102.453L13.9798 101.117C13.9322 100.591 13.6894 100.186 13.2513 99.9011C12.8118 99.602 12.2415 99.484 11.5404 99.5471C10.8392 99.6103 10.2993 99.8283 9.92074 100.201C9.52622 100.561 9.35276 101.003 9.40037 101.529L9.52138 102.866Z" fill="#1A2634"/>
<path d="M9.42714 81.4788C9.50011 81.4861 9.56287 81.5218 9.61542 81.5861C9.65483 81.6342 9.6709 81.6948 9.66362 81.7677L9.19172 86.4963C9.18444 86.5692 9.21729 86.6094 9.29026 86.6166L13.4277 87.0299C13.5006 87.0372 13.5408 87.0044 13.548 86.9314L13.8277 84.1293C13.835 84.0563 13.87 84.0009 13.9327 83.9629C13.9823 83.9089 14.0436 83.8856 14.1166 83.8929L15.8022 84.0612C15.8752 84.0685 15.9379 84.1043 15.9905 84.1685C16.0299 84.2166 16.046 84.2772 16.0387 84.3502L15.759 87.1522C15.7518 87.2252 15.7846 87.2653 15.8576 87.2726L20.0169 87.6881C20.0898 87.6954 20.13 87.6625 20.1373 87.5896L20.6092 82.8611C20.6164 82.7881 20.6514 82.7326 20.7142 82.6947C20.7638 82.6407 20.8251 82.6173 20.8981 82.6246L22.5618 82.7908C22.6348 82.7981 22.6975 82.8338 22.7501 82.898C22.7895 82.9462 22.8055 83.0067 22.7983 83.0797L22.0882 90.1944C22.081 90.2673 22.0525 90.3308 22.0029 90.3848C21.9402 90.4228 21.8723 90.4381 21.7993 90.4308L7.00096 88.9527C6.92799 88.9454 6.8718 88.9177 6.83239 88.8695C6.77984 88.8053 6.7572 88.7367 6.76449 88.6637L7.47451 81.5491C7.48179 81.4761 7.51681 81.4206 7.57955 81.3827C7.62916 81.3287 7.69045 81.3053 7.76342 81.3126L9.42714 81.4788Z" fill="#1A2634"/>
<path d="M23.9469 72.7864C23.5997 73.9532 22.9679 74.7906 22.0516 75.2985C21.1354 75.8065 20.1078 75.8913 18.9691 75.5528L18.4208 75.3898C18.3505 75.3689 18.3006 75.3311 18.2709 75.2764C18.2314 75.2034 18.2221 75.1318 18.243 75.0615L18.8141 73.1427C18.835 73.0724 18.8798 73.0245 18.9486 72.9991C19.0075 72.9554 19.0721 72.944 19.1424 72.9649L19.5642 73.0902C20.1125 73.2532 20.595 73.2513 21.0119 73.0845C21.433 72.9037 21.7084 72.5953 21.8381 72.1596C21.9677 71.7238 21.9198 71.3194 21.6941 70.9463C21.4545 70.569 21.0745 70.3031 20.5544 70.1484C20.1888 70.0398 19.8495 70.0231 19.5364 70.0983C19.2232 70.1735 18.9053 70.3162 18.5827 70.5263C18.26 70.7364 17.7817 71.0839 17.1478 71.5687C16.4325 72.1211 15.8132 72.5567 15.2899 72.8755C14.7707 73.1802 14.1931 73.3987 13.557 73.5309C12.911 73.6449 12.2224 73.5932 11.4914 73.3759C10.3245 73.0291 9.5012 72.4018 9.02148 71.4942C8.54176 70.5865 8.47342 69.5563 8.81644 68.4036C9.16364 67.2369 9.80944 66.4037 10.7538 65.904C11.6842 65.4002 12.7468 65.3259 13.9418 65.6812L14.4479 65.8316C14.5182 65.8525 14.5731 65.8994 14.6126 65.9724C14.6423 66.0271 14.6466 66.0896 14.6257 66.1599L14.061 68.0576C14.0401 68.1279 14.0001 68.1849 13.9412 68.2286C13.8725 68.254 13.8029 68.2563 13.7326 68.2354L13.1843 68.0724C12.636 67.9095 12.1584 67.9205 11.7514 68.1055C11.3345 68.2723 11.0591 68.5806 10.9252 69.0305C10.7997 69.4522 10.8519 69.8426 11.0817 70.2016C11.2975 70.5565 11.6725 70.8133 12.2067 70.9721C12.7128 71.1225 13.1834 71.1094 13.6186 70.9327C14.0579 70.742 14.7123 70.3169 15.5819 69.6573C16.4697 68.9878 17.1823 68.4958 17.7197 68.1812C18.243 67.8624 18.7792 67.6546 19.3283 67.5577C19.8775 67.4608 20.4824 67.5106 21.1431 67.707C22.3381 68.0622 23.1945 68.7069 23.7122 69.6412C24.2159 70.5712 24.2941 71.6196 23.9469 72.7864Z" fill="#1A2634"/>
<path d="M30.4235 54.0354C30.155 54.4556 29.8011 54.7779 29.3618 55.0023C28.9304 55.2143 28.4682 55.311 27.9753 55.2925C27.4824 55.2739 27.0318 55.1346 26.6237 54.8744C25.9806 54.4645 25.5786 53.8952 25.4177 53.1664C25.2646 52.4254 25.3935 51.7335 25.8042 51.0909C26.207 50.4606 26.7732 50.0649 27.5027 49.9038C28.2402 49.7303 28.9305 49.8486 29.5736 50.2585C29.9817 50.5187 30.298 50.8681 30.5224 51.3069C30.7468 51.7456 30.8496 52.2111 30.8308 52.7036C30.8199 53.1836 30.6841 53.6276 30.4235 54.0354Z" fill="#1A2634"/>
<path d="M80.929 94.1786L75.5759 99.6796L94.485 118.242L113.394 99.6796L108.041 94.1786L98.2708 103.35L98.2708 68.7879L90.6991 68.7879L90.6991 103.35L80.929 94.1786Z" fill="#1A2634"/>
</svg>
