<svg width="249" height="249" viewBox="0 0 249 249" fill="none" xmlns="http://www.w3.org/2000/svg">
<path d="M165.475 219.9C166.854 219.262 168.165 219.169 169.408 219.621C170.634 220.081 171.572 221.011 172.221 222.41L176.025 230.608C176.674 232.007 176.777 233.322 176.336 234.554C175.878 235.793 174.96 236.732 173.58 237.37C172.201 238.008 170.89 238.101 169.648 237.649C168.405 237.196 167.459 236.271 166.81 234.872L163.007 226.674C162.358 225.275 162.262 223.956 162.72 222.717C163.177 221.477 164.096 220.539 165.475 219.9ZM166.607 222.34C166.062 222.593 165.708 222.984 165.544 223.514C165.389 224.06 165.454 224.642 165.741 225.26L169.658 233.702C169.945 234.32 170.343 234.739 170.853 234.957C171.371 235.191 171.903 235.182 172.448 234.93C172.994 234.678 173.344 234.278 173.5 233.732C173.647 233.21 173.577 232.639 173.29 232.021L169.374 223.579C169.087 222.961 168.693 222.531 168.191 222.289C167.68 222.071 167.152 222.088 166.607 222.34Z" fill="white"/>
<path d="M146.805 226.725C148.283 226.363 149.587 226.551 150.718 227.288C151.836 228.047 152.591 229.218 152.983 230.8L156.178 243.683C156.199 243.77 156.191 243.846 156.152 243.911C156.101 243.997 156.032 244.051 155.946 244.072L153.575 244.653C153.489 244.674 153.412 244.656 153.343 244.599C153.261 244.564 153.21 244.503 153.188 244.416L149.916 231.219C149.743 230.524 149.431 230.001 148.98 229.651C148.528 229.3 148.019 229.194 147.452 229.333C146.885 229.472 146.483 229.801 146.248 230.32C146.012 230.838 145.98 231.446 146.152 232.141L149.425 245.337C149.447 245.424 149.438 245.5 149.399 245.565C149.348 245.651 149.279 245.705 149.193 245.726L146.822 246.307C146.736 246.328 146.659 246.31 146.59 246.253C146.508 246.218 146.457 246.156 146.435 246.07L143.24 233.186C142.848 231.604 142.978 230.217 143.63 229.024C144.286 227.849 145.345 227.083 146.805 226.725Z" fill="white"/>
<path d="M123.848 230.297C124.025 230.289 124.144 230.373 124.207 230.549L126.861 238.129C126.9 238.198 126.946 238.232 126.999 238.23L128.407 238.163C128.495 238.159 128.537 238.112 128.532 238.023L128.14 230.417C128.135 230.328 128.167 230.246 128.234 230.171C128.284 230.115 128.354 230.085 128.442 230.081L130.885 229.965C130.974 229.961 131.055 229.984 131.129 230.034C131.185 230.103 131.216 230.182 131.221 230.272L132.155 248.376C132.16 248.465 132.137 248.538 132.086 248.594C132.019 248.669 131.941 248.708 131.853 248.713L126.86 248.948C125.921 248.992 125.086 248.799 124.354 248.368C123.605 247.956 123.014 247.34 122.581 246.519C122.132 245.717 121.879 244.78 121.824 243.709C121.767 242.602 121.93 241.637 122.314 240.813C122.697 239.99 123.259 239.355 123.999 238.908C124.069 238.887 124.093 238.832 124.07 238.744L121.052 230.805C121.032 230.77 121.021 230.726 121.018 230.672C121.01 230.512 121.103 230.427 121.298 230.418L123.848 230.297ZM128.82 246.171C128.908 246.167 128.95 246.12 128.946 246.031L128.671 240.701C128.666 240.612 128.619 240.569 128.531 240.574L126.911 240.65C126.274 240.68 125.773 240.954 125.409 241.473C125.028 241.992 124.859 242.68 124.903 243.537C124.948 244.394 125.186 245.063 125.619 245.543C126.036 246.043 126.562 246.277 127.2 246.247L128.82 246.171Z" fill="white"/>
<path d="M96.6793 224.749C96.8858 224.804 96.973 224.928 96.9411 225.122L96.7279 227.967C96.7056 228.053 96.7461 228.11 96.8493 228.137L100.617 229.136C100.721 229.163 100.783 229.134 100.806 229.047L102 226.463C102.066 226.278 102.202 226.213 102.409 226.268L104.758 226.89C104.998 226.954 105.064 227.091 104.954 227.301L96.6052 243.764C96.5216 243.944 96.3852 244.009 96.1959 243.959L93.4602 243.234C93.2709 243.184 93.1836 243.06 93.1984 242.861L93.908 224.374L93.9349 224.271C93.9751 224.115 94.0898 224.063 94.2791 224.113L96.6793 224.749ZM99.6645 231.535C99.704 231.454 99.6722 231.399 99.5689 231.372L96.7041 230.612C96.6009 230.585 96.5467 230.617 96.5416 230.708L95.9212 239.273C95.925 239.329 95.9441 239.362 95.9785 239.371C96.0129 239.38 96.0455 239.361 96.0761 239.314L99.6645 231.535Z" fill="white"/>
<path d="M84.7158 220.752C84.7964 220.79 84.8578 220.849 84.8998 220.928C84.9182 221.015 84.9087 221.099 84.8712 221.179L77.2641 237.498C77.2266 237.578 77.1724 237.631 77.1015 237.656C77.0069 237.69 76.9193 237.688 76.8386 237.65L74.6117 236.598C74.531 236.56 74.4815 236.497 74.4631 236.41C74.421 236.331 74.4187 236.252 74.4563 236.171L81.0168 222.098C81.0543 222.017 81.0327 221.958 80.952 221.92L75.7236 219.45C75.6429 219.412 75.5933 219.349 75.5749 219.262C75.5329 219.183 75.5306 219.104 75.5681 219.023L76.4234 217.189C76.4609 217.108 76.5269 217.051 76.6215 217.017C76.6924 216.992 76.7682 216.998 76.8489 217.036L84.7158 220.752Z" fill="white"/>
<path d="M68.0031 212.042C68.0759 212.094 68.1262 212.162 68.1539 212.247C68.1568 212.336 68.1327 212.417 68.0816 212.489L57.7289 227.171C57.6779 227.243 57.6152 227.285 57.5408 227.298C57.4417 227.314 57.3557 227.296 57.2828 227.245L55.2714 225.814C55.1985 225.762 55.1606 225.691 55.1577 225.602C55.1301 225.517 55.1417 225.439 55.1928 225.366L64.1212 212.705C64.1723 212.633 64.1614 212.571 64.0885 212.519L59.366 209.159C59.2931 209.107 59.2552 209.037 59.2523 208.948C59.2247 208.863 59.2364 208.784 59.2874 208.712L60.4513 207.062C60.5024 206.989 60.5775 206.945 60.6766 206.928C60.751 206.916 60.8246 206.936 60.8975 206.988L68.0031 212.042Z" fill="white"/>
<path d="M26.5333 198.757C25.9559 198.002 25.6316 197.2 25.5604 196.351C25.4783 195.487 25.647 194.646 26.0664 193.827C26.4749 192.994 27.0998 192.254 27.9412 191.609C29.2032 190.64 30.4813 190.202 31.7755 190.294C33.0588 190.371 34.1253 190.965 34.9751 192.076L36.3642 193.891C36.4186 193.963 36.4809 193.971 36.551 193.918L42.3985 189.431C42.4686 189.377 42.5535 189.357 42.6532 189.371C42.7279 189.381 42.7925 189.422 42.847 189.493L44.3505 191.458C44.4049 191.53 44.4329 191.61 44.4344 191.699C44.411 191.785 44.3643 191.855 44.2942 191.908L30.0541 202.835C29.984 202.889 29.9115 202.91 29.8368 202.9C29.7371 202.886 29.66 202.844 29.6056 202.772L26.5333 198.757ZM33.4696 194.079C33.0665 193.552 32.5487 193.282 31.9164 193.27C31.2592 193.255 30.587 193.511 29.8999 194.038C29.1988 194.576 28.7702 195.165 28.6141 195.804C28.4331 196.44 28.5441 197.022 28.9472 197.549L29.9277 198.83C29.9822 198.901 30.0445 198.91 30.1146 198.856L34.4266 195.548C34.4967 195.494 34.5045 195.431 34.4501 195.36L33.4696 194.079Z" fill="white"/>
<path d="M29.6716 168.757C29.7523 168.917 29.7258 169.061 29.5922 169.188L23.8251 174.65C23.7781 174.714 23.7667 174.769 23.7909 174.817L24.4323 176.091C24.4726 176.171 24.5323 176.191 24.6112 176.151L31.3359 172.767C31.4149 172.728 31.502 172.724 31.5975 172.756C31.669 172.78 31.725 172.833 31.7653 172.913L32.8787 175.123C32.919 175.203 32.9317 175.287 32.9166 175.375C32.8776 175.455 32.8187 175.514 32.7398 175.554L16.733 183.609C16.6541 183.648 16.5789 183.656 16.5073 183.632C16.4119 183.6 16.344 183.543 16.3037 183.463L14.0285 178.947C13.6009 178.098 13.4309 177.25 13.5186 176.403C13.5825 175.548 13.8966 174.757 14.461 174.032C15.0016 173.298 15.7455 172.693 16.6926 172.216C17.6713 171.724 18.6127 171.491 19.5167 171.518C20.4207 171.545 21.2277 171.811 21.9377 172.317C21.9857 172.373 22.0452 172.374 22.1161 172.318L28.0573 166.377C28.0808 166.345 28.1162 166.317 28.1636 166.294C28.3057 166.222 28.4211 166.274 28.5098 166.451L29.6716 168.757ZM17.3524 179.653C17.3927 179.733 17.4524 179.754 17.5313 179.714L22.2434 177.343C22.3223 177.303 22.3416 177.243 22.3012 177.163L21.563 175.698C21.2726 175.121 20.8176 174.768 20.1981 174.638C19.5705 174.492 18.8779 174.61 18.1202 174.991C17.3624 175.372 16.8554 175.858 16.5989 176.449C16.3186 177.032 16.3237 177.611 16.6142 178.188L17.3524 179.653Z" fill="white"/>
<path d="M23.6237 152.597C24.0501 154.078 23.9525 155.4 23.3308 156.565C22.7042 157.713 21.6596 158.495 20.1969 158.912L11.6249 161.357C10.1622 161.774 8.85975 161.661 7.71753 161.018C6.57035 160.357 5.78358 159.287 5.35721 157.806C4.93084 156.325 5.02849 155.002 5.65014 153.838C6.27179 152.673 7.31395 151.882 8.77664 151.465L17.3486 149.02C18.8113 148.603 20.1163 148.725 21.2634 149.385C22.4106 150.046 23.1974 151.116 23.6237 152.597ZM21.0726 153.324C20.904 152.739 20.5721 152.321 20.0768 152.071C19.5645 151.826 18.9852 151.796 18.3389 151.98L9.51173 154.497C8.86543 154.682 8.39874 155.01 8.11167 155.483C7.8076 155.961 7.73984 156.493 7.9084 157.079C8.07697 157.664 8.41741 158.079 8.92971 158.324C9.42005 158.557 9.98837 158.581 10.6347 158.397L19.4618 155.88C20.1081 155.696 20.5858 155.373 20.8948 154.912C21.1819 154.439 21.2411 153.91 21.0726 153.324Z" fill="white"/>
<path d="M19.839 133.961C19.9781 135.439 19.658 136.672 18.8788 137.657C18.082 138.645 16.9601 139.204 15.5132 139.334L13.5546 139.51C13.4663 139.518 13.3932 139.498 13.3353 139.449C13.258 139.384 13.2152 139.307 13.2068 139.218L12.9756 136.76C12.9673 136.671 12.9959 136.597 13.0614 136.537C13.1076 136.461 13.1749 136.419 13.2631 136.411L15.2747 136.23C15.8922 136.175 16.3792 135.961 16.7356 135.587C17.092 135.214 17.2442 134.751 17.1922 134.199C17.1403 133.647 16.9043 133.219 16.4843 132.916C16.0626 132.595 15.543 132.462 14.9254 132.517L1.24153 133.748C1.1533 133.755 1.08021 133.735 1.02225 133.686C0.944967 133.622 0.902137 133.545 0.893761 133.456L0.662602 130.998C0.654227 130.909 0.682816 130.835 0.748372 130.775C0.794608 130.699 0.861838 130.657 0.950064 130.649L14.581 129.423C16.0279 129.293 17.236 129.652 18.2054 130.498C19.1555 131.329 19.7 132.483 19.839 133.961Z" fill="white"/>
<path d="M3.54863 107.242C3.63703 107.25 3.71345 107.293 3.77789 107.371C3.82621 107.429 3.84645 107.503 3.8386 107.592L3.3296 113.351C3.32175 113.44 3.36202 113.489 3.45042 113.497L8.46277 113.966C8.55117 113.974 8.5993 113.934 8.60715 113.845L8.90878 110.432C8.91664 110.343 8.95828 110.275 9.03371 110.229C9.09304 110.162 9.1669 110.133 9.2553 110.142L11.2974 110.333C11.3858 110.341 11.4622 110.384 11.5266 110.462C11.575 110.52 11.5952 110.594 11.5873 110.682L11.2857 114.096C11.2779 114.184 11.3181 114.233 11.4065 114.241L16.4454 114.713C16.5338 114.721 16.5819 114.681 16.5898 114.592L17.0988 108.832C17.1066 108.743 17.1483 108.675 17.2237 108.629C17.283 108.563 17.3569 108.534 17.4453 108.542L19.4608 108.73C19.5492 108.739 19.6257 108.782 19.6901 108.859C19.7384 108.918 19.7587 108.991 19.7508 109.08L18.985 117.746C18.9771 117.835 18.9435 117.912 18.8842 117.979C18.8088 118.025 18.7269 118.045 18.6384 118.036L0.710682 116.359C0.622281 116.351 0.553917 116.318 0.505589 116.26C0.441152 116.182 0.412859 116.099 0.420714 116.01L1.18656 107.344C1.19441 107.255 1.23606 107.187 1.31149 107.14C1.37082 107.074 1.44468 107.045 1.53308 107.054L3.54863 107.242Z" fill="white"/>
<path d="M22.8038 94.9206C22.3997 96.3785 21.6371 97.4297 20.5162 98.0743C19.3829 98.6969 18.0882 98.8021 16.632 98.3899L7.86933 95.9095C6.39604 95.4925 5.35235 94.7254 4.73826 93.6082C4.1118 92.469 4.00062 91.1705 4.40475 89.7126C4.81363 88.2375 5.57854 87.1777 6.69947 86.5332C7.80327 85.8837 9.09181 85.7675 10.5651 86.1845L10.8735 86.2718C10.9591 86.2961 11.0267 86.3522 11.0762 86.4402C11.1305 86.5111 11.1457 86.5894 11.1219 86.6751L10.5615 89.0969C10.5044 89.3027 10.3731 89.3765 10.1675 89.3183L9.52512 89.1365C8.92553 88.9668 8.38974 89.0001 7.91776 89.2364C7.44578 89.4728 7.13135 89.874 6.97445 90.44C6.82231 90.9888 6.88714 91.4881 7.16894 91.9378C7.45074 92.3875 7.89144 92.6973 8.49103 92.867L17.6906 95.4709C18.2901 95.6407 18.8259 95.6074 19.2979 95.371C19.7699 95.1347 20.082 94.742 20.2341 94.1932C20.391 93.6272 20.3285 93.1193 20.0467 92.6696C19.7649 92.2199 19.3242 91.9102 18.7246 91.7405L18.0822 91.5586C17.9966 91.5344 17.9352 91.4893 17.898 91.4232C17.8485 91.3352 17.8357 91.2484 17.8594 91.1626L18.6255 88.799C18.6492 88.7133 18.7025 88.6544 18.7853 88.6223C18.8557 88.5683 18.9338 88.5534 19.0194 88.5776L19.3278 88.6649C20.7839 89.0771 21.8338 89.8552 22.4774 90.9992C23.1039 92.1384 23.2127 93.4455 22.8038 94.9206Z" fill="white"/>
<path d="M14.8665 63.5509C14.9058 63.4713 14.9691 63.4235 15.0565 63.4077C15.1358 63.3679 15.2154 63.368 15.2953 63.4078L17.1162 64.3168C17.1961 64.3566 17.2523 64.4244 17.2848 64.5199C17.3091 64.5916 17.3017 64.6673 17.2625 64.7469L15.7674 67.7799C15.7281 67.8595 15.7485 67.9193 15.8283 67.9591L29.7967 74.9317C29.8765 74.9715 29.9327 75.0393 29.9652 75.1348C29.9896 75.2065 29.9822 75.2822 29.9429 75.3618L28.8599 77.5589C28.8206 77.6385 28.7613 77.6982 28.682 77.738C28.5946 77.7539 28.511 77.7419 28.4311 77.702L14.4627 70.7295C14.3829 70.6896 14.3233 70.7095 14.2841 70.7891L12.8714 73.6549C12.8322 73.7345 12.7729 73.7942 12.6936 73.834C12.6062 73.8499 12.5225 73.8379 12.4426 73.798L10.6217 72.8891C10.5419 72.8492 10.4897 72.7934 10.4654 72.7217C10.4329 72.6262 10.4362 72.5386 10.4755 72.459L14.8665 63.5509Z" fill="white"/>
<path d="M39.6946 59.7168C38.8156 60.8951 37.7486 61.5773 36.4935 61.7636C35.2384 61.9498 34.0318 61.6074 32.8735 60.7362L32.3159 60.3168C32.2444 60.263 32.2031 60.1987 32.1919 60.1238C32.1771 60.024 32.1962 59.9386 32.2491 59.8677L33.6947 57.9299C33.7476 57.8589 33.8186 57.8237 33.9075 57.8241C33.9928 57.7996 34.0712 57.8142 34.1427 57.868L34.5717 58.1906C35.1293 58.6101 35.6804 58.814 36.2248 58.8024C36.7798 58.7766 37.2214 58.5436 37.5497 58.1036C37.878 57.6635 37.9908 57.1832 37.888 56.6626C37.7709 56.1314 37.4478 55.6668 36.9187 55.2688C36.547 54.9892 36.167 54.8253 35.7788 54.7771C35.3906 54.7289 34.9691 54.7553 34.5142 54.8564C34.0593 54.9575 33.3701 55.1483 32.4465 55.4288C31.4022 55.7514 30.5158 55.9822 29.7871 56.1211C29.069 56.2458 28.3199 56.2475 27.5398 56.1262C26.7561 55.9799 25.9924 55.6272 25.2488 55.0679C24.062 54.1752 23.383 53.1105 23.2118 51.8737C23.0407 50.6369 23.3893 49.4365 24.2577 48.2724C25.1367 47.0941 26.218 46.4226 27.5017 46.2579C28.7711 46.0824 30.0135 46.4517 31.2289 47.3659L31.7437 47.7531C31.8152 47.8069 31.8584 47.8837 31.8732 47.9835C31.8843 48.0583 31.8634 48.1312 31.8104 48.2022L30.3808 50.1187C30.3278 50.1897 30.2587 50.2374 30.1734 50.2619C30.0845 50.2615 30.0042 50.2344 29.9328 50.1806L29.3751 49.7612C28.8174 49.3417 28.2682 49.1503 27.7275 49.1868C27.1831 49.1984 26.7415 49.4314 26.4026 49.8856C26.0849 50.3115 25.9827 50.7776 26.0961 51.284C26.1952 51.7795 26.5164 52.2317 27.0598 52.6404C27.5745 53.0276 28.1166 53.2136 28.6859 53.1986C29.2657 53.1693 30.188 52.9654 31.4526 52.5869C32.742 52.2049 33.7583 51.9498 34.5012 51.8217C35.2299 51.6827 35.9274 51.6754 36.5936 51.7998C37.2598 51.9241 37.9289 52.239 38.601 52.7445C39.8164 53.6587 40.5259 54.7574 40.7293 56.0407C40.9185 57.3132 40.5736 58.5385 39.6946 59.7168Z" fill="white"/>
<path d="M57.626 35.3898C57.1485 35.7546 56.6137 35.9715 56.0217 36.0402C55.4437 36.0983 54.8778 36.0117 54.3239 35.7806C53.7701 35.5494 53.3138 35.1986 52.9553 34.7279C52.3902 33.9864 52.1649 33.1657 52.2793 32.266C52.4077 31.3555 52.8371 30.6212 53.5674 30.0632C54.2837 29.5159 55.0902 29.3058 55.987 29.4328C56.8978 29.5492 57.6357 29.9781 58.2008 30.7197C58.5594 31.1903 58.7768 31.7236 58.8532 32.3197C58.9296 32.9157 58.8565 33.4905 58.6339 34.0442C58.4254 34.5871 58.0894 35.0356 57.626 35.3898Z" fill="white"/>
<path d="M83.9912 27.1423C82.5736 27.6912 81.2585 27.7006 80.0459 27.1704C78.8498 26.6339 77.9715 25.6475 77.4109 24.2112L74.126 15.7941C73.5655 14.3578 73.5444 13.0396 74.0626 11.8392C74.5974 10.6325 75.5736 9.75471 76.9912 9.20581C78.4089 8.65691 79.724 8.64754 80.9366 9.17769C82.1492 9.70785 83.0357 10.6911 83.5963 12.1273L86.8812 20.5444C87.4417 21.9807 87.4546 23.3022 86.9198 24.5089C86.3851 25.7156 85.4089 26.5934 83.9912 27.1423ZM83.0136 24.6372C83.5741 24.4202 83.9524 24.0526 84.1487 23.5345C84.3384 22.9996 84.3095 22.4149 84.0618 21.7803L80.6791 13.1126C80.4314 12.478 80.0596 12.0357 79.5635 11.7856C79.0609 11.5188 78.5294 11.4939 77.9689 11.7109C77.4084 11.9279 77.0333 12.3038 76.8436 12.8387C76.6638 13.3505 76.6977 13.9237 76.9454 14.5583L80.3281 23.2259C80.5758 23.8606 80.9426 24.3145 81.4288 24.5876C81.9248 24.8377 82.4531 24.8542 83.0136 24.6372Z" fill="white"/>
<path d="M103.046 21.5099C101.547 21.7775 100.257 21.5079 99.174 20.701C98.1056 19.8734 97.4254 18.6582 97.1335 17.0554L94.7558 4.00391C94.7398 3.91585 94.7531 3.84073 94.7957 3.77856C94.8526 3.69566 94.9246 3.64642 95.0117 3.63086L97.4163 3.20139C97.5035 3.18583 97.5796 3.20861 97.6447 3.26973C97.724 3.31012 97.7717 3.37434 97.7878 3.46241L100.223 16.8309C100.351 17.5354 100.63 18.0767 101.059 18.4548C101.487 18.8329 101.989 18.9706 102.564 18.8679C103.139 18.7652 103.561 18.4626 103.829 17.96C104.098 17.4574 104.168 16.8539 104.039 16.1493L101.604 2.78087C101.588 2.6928 101.601 2.61767 101.644 2.5555C101.701 2.47259 101.773 2.42336 101.86 2.4078L104.264 1.97834C104.351 1.96278 104.428 1.98555 104.493 2.04667C104.572 2.08706 104.62 2.15129 104.636 2.23936L107.013 15.2908C107.305 16.8936 107.088 18.2691 106.362 19.4173C105.632 20.5478 104.527 21.2454 103.046 21.5099Z" fill="white"/>
<path d="M126.193 19.3958C126.016 19.3929 125.901 19.3017 125.85 19.1222L123.677 11.3956C123.642 11.3236 123.598 11.2871 123.545 11.2863L122.135 11.2634C122.046 11.262 122.001 11.3059 122 11.3952L121.913 19.0048C121.912 19.0941 121.876 19.1739 121.804 19.2442C121.75 19.297 121.679 19.3226 121.59 19.3212L119.143 19.2815C119.054 19.2801 118.974 19.252 118.904 19.1973C118.852 19.1249 118.826 19.0441 118.827 18.9548L119.034 0.841791C119.035 0.752476 119.063 0.681459 119.116 0.628732C119.188 0.55843 119.268 0.523996 119.357 0.525434L124.359 0.606491C125.299 0.621727 126.121 0.867314 126.825 1.34325C127.547 1.80161 128.099 2.45374 128.479 3.29962C128.878 4.12793 129.071 5.07796 129.059 6.14974C129.046 7.25724 128.822 8.20945 128.387 9.00639C127.952 9.80332 127.351 10.401 126.584 10.7995C126.513 10.8162 126.486 10.8694 126.502 10.959L129.017 19.0664C129.035 19.1024 129.043 19.1472 129.043 19.2008C129.041 19.3615 128.942 19.4403 128.747 19.4372L126.193 19.3958ZM122.226 3.25187C122.138 3.25044 122.093 3.29437 122.092 3.38369L122.031 8.71577C122.03 8.80509 122.074 8.85047 122.162 8.8519L123.785 8.8782C124.424 8.88855 124.941 8.64681 125.337 8.15297C125.751 7.65942 125.962 6.98393 125.972 6.12651C125.982 5.26909 125.786 4.587 125.383 4.08022C124.999 3.55587 124.488 3.28852 123.849 3.27817L122.226 3.25187Z" fill="white"/>
<path d="M158.121 25.2712C157.918 25.2035 157.839 25.0739 157.883 24.8824L158.274 22.0596C158.302 21.9751 158.265 21.9159 158.164 21.8821L154.463 20.6466C154.361 20.6127 154.297 20.6381 154.269 20.7226L152.915 23.2237C152.837 23.404 152.696 23.4603 152.494 23.3926L150.187 22.6225C149.95 22.5435 149.893 22.4026 150.016 22.1998L159.386 6.31446C159.481 6.13983 159.621 6.08355 159.807 6.14561L162.494 7.04262C162.68 7.10468 162.76 7.2343 162.732 7.4315L160.866 25.8218L160.832 25.9232C160.783 26.0753 160.665 26.1203 160.479 26.0582L158.121 25.2712ZM155.565 18.3144C155.52 18.3932 155.548 18.4496 155.65 18.4834L158.464 19.4228C158.565 19.4566 158.621 19.4285 158.632 19.3383L159.788 10.8363C159.788 10.78 159.771 10.7462 159.737 10.7349C159.703 10.7236 159.67 10.7405 159.636 10.7856L155.565 18.3144Z" fill="white"/>
<path d="M169.811 30.0179C169.732 29.9747 169.675 29.9125 169.638 29.8313C169.625 29.7431 169.64 29.6601 169.682 29.5822L178.299 13.791C178.341 13.7131 178.399 13.6637 178.471 13.6429C178.568 13.6151 178.655 13.6228 178.733 13.666L180.891 14.8571C180.97 14.9003 181.015 14.966 181.028 15.0542C181.065 15.1354 181.062 15.215 181.02 15.2928L173.589 28.9116C173.546 28.9895 173.564 29.05 173.642 29.0931L178.709 31.8897C178.787 31.9329 178.833 31.9986 178.846 32.0867C178.883 32.168 178.88 32.2475 178.838 32.3254L177.869 34.1008C177.826 34.1786 177.757 34.2314 177.66 34.2592C177.588 34.28 177.513 34.2689 177.434 34.2257L169.811 30.0179Z" fill="white"/>
<path d="M185.947 39.7694C185.877 39.713 185.831 39.6416 185.809 39.5552C185.811 39.4662 185.841 39.3872 185.896 39.3182L197.151 25.3319C197.206 25.2629 197.271 25.2247 197.346 25.2171C197.446 25.207 197.531 25.2301 197.601 25.2865L199.52 26.842C199.589 26.8984 199.622 26.9711 199.62 27.0601C199.642 27.1465 199.626 27.2243 199.57 27.2932L189.864 39.3554C189.808 39.4244 189.815 39.487 189.885 39.5434L194.39 43.1956C194.459 43.2519 194.493 43.3246 194.49 43.4136C194.512 43.5001 194.496 43.5778 194.44 43.6467L193.175 45.2192C193.119 45.2881 193.042 45.3277 192.942 45.3377C192.867 45.3453 192.794 45.3209 192.725 45.2645L185.947 39.7694Z" fill="white"/>
<path d="M226.503 55.6579C227.032 56.4475 227.306 57.2683 227.323 58.1202C227.351 58.987 227.13 59.8157 226.66 60.6063C226.199 61.4117 225.529 62.1098 224.649 62.7006C223.328 63.5868 222.025 63.9431 220.738 63.7696C219.462 63.6109 218.435 62.9505 217.656 61.7885L216.384 59.889C216.334 59.8145 216.272 59.8019 216.199 59.8511L210.08 63.9571C210.006 64.0063 209.92 64.0209 209.822 64.0006C209.748 63.9855 209.686 63.9407 209.636 63.8662L208.258 61.8102C208.208 61.7358 208.186 61.6539 208.19 61.5648C208.218 61.4807 208.27 61.4141 208.343 61.3648L223.245 51.3657C223.318 51.3165 223.392 51.2994 223.466 51.3146C223.565 51.3348 223.639 51.3821 223.689 51.4566L226.503 55.6579ZM219.285 59.8858C219.654 60.437 220.154 60.7386 220.785 60.7907C221.44 60.8478 222.127 60.6351 222.846 60.1526C223.58 59.6603 224.045 59.1 224.241 58.4718C224.461 57.8487 224.387 57.2615 224.018 56.7103L223.119 55.3694C223.07 55.295 223.008 55.2823 222.934 55.3316L218.422 58.3594C218.349 58.4086 218.337 58.4705 218.387 58.5449L219.285 59.8858Z" fill="white"/>
<path d="M221.478 85.3879C221.407 85.2231 221.443 85.0813 221.584 84.9626L227.686 79.8791C227.737 79.8184 227.752 79.7633 227.731 79.7139L227.171 78.4032C227.135 78.3207 227.077 78.2968 226.996 78.3315L220.069 81.2817C219.987 81.3163 219.9 81.3145 219.807 81.2763C219.737 81.2476 219.684 81.192 219.649 81.1096L218.677 78.8344C218.641 78.752 218.634 78.6674 218.655 78.5807C218.698 78.5035 218.761 78.4476 218.842 78.413L235.331 71.3906C235.413 71.356 235.488 71.353 235.558 71.3817C235.651 71.4199 235.716 71.4803 235.751 71.5627L237.738 76.212C238.111 77.0858 238.228 77.9425 238.087 78.782C237.969 79.6311 237.606 80.3997 236.997 81.088C236.411 81.7857 235.63 82.3424 234.654 82.7579C233.646 83.1873 232.691 83.36 231.79 83.2759C230.89 83.1919 230.101 82.875 229.424 82.3254C229.379 82.2664 229.32 82.2624 229.246 82.3135L222.94 87.8639C222.914 87.8942 222.877 87.9198 222.828 87.9406C222.682 88.0029 222.57 87.9434 222.492 87.762L221.478 85.3879ZM234.464 75.2971C234.429 75.2147 234.37 75.1908 234.289 75.2254L229.435 77.2926C229.354 77.3273 229.331 77.3858 229.366 77.4682L230.011 78.9768C230.264 79.5703 230.696 79.9515 231.307 80.1203C231.924 80.3056 232.623 80.232 233.404 79.8996C234.184 79.5672 234.721 79.1144 235.014 78.5413C235.331 77.9777 235.362 77.3992 235.109 76.8057L234.464 75.2971Z" fill="white"/>
<path d="M226.492 101.895C226.16 100.391 226.341 99.078 227.035 97.9554C227.733 96.8504 228.826 96.136 230.313 95.8123L239.027 93.9154C240.513 93.5917 241.807 93.7867 242.907 94.5003C244.011 95.2314 244.729 96.3489 245.061 97.8528C245.394 99.3567 245.213 100.67 244.518 101.792C243.824 102.915 242.733 103.638 241.247 103.962L232.533 105.859C231.046 106.182 229.75 105.979 228.646 105.248C227.543 104.517 226.824 103.399 226.492 101.895ZM229.086 101.331C229.217 101.925 229.522 102.363 230.001 102.643C230.497 102.92 231.073 102.987 231.73 102.844L240.704 100.891C241.361 100.748 241.848 100.449 242.164 99.9956C242.498 99.538 242.599 99.012 242.468 98.4174C242.336 97.8228 242.023 97.3871 241.527 97.1102C241.052 96.847 240.486 96.7869 239.829 96.9299L230.855 98.8833C230.198 99.0264 229.701 99.3179 229.363 99.758C229.047 100.212 228.954 100.736 229.086 101.331Z" fill="white"/>
<path d="M229.094 120.726C229.048 119.243 229.445 118.035 230.286 117.101C231.144 116.166 232.299 115.68 233.753 115.642L235.72 115.59C235.809 115.588 235.88 115.613 235.935 115.665C236.008 115.734 236.046 115.814 236.049 115.903L236.125 118.369C236.128 118.458 236.094 118.53 236.025 118.586C235.974 118.659 235.904 118.696 235.816 118.699L233.795 118.752C233.175 118.768 232.675 118.951 232.296 119.301C231.916 119.65 231.735 120.102 231.752 120.656C231.769 121.21 231.978 121.651 232.378 121.98C232.779 122.328 233.29 122.493 233.91 122.477L247.655 122.115C247.743 122.113 247.815 122.138 247.87 122.19C247.943 122.26 247.981 122.339 247.984 122.428L248.06 124.894C248.062 124.983 248.029 125.056 247.96 125.111C247.909 125.184 247.839 125.221 247.751 125.224L234.059 125.584C232.606 125.622 231.422 125.188 230.507 124.283C229.61 123.394 229.139 122.209 229.094 120.726Z" fill="white"/>
<path d="M243.682 148.411C243.594 148.397 243.52 148.35 243.461 148.268C243.416 148.207 243.401 148.132 243.414 148.044L244.284 142.333C244.298 142.245 244.26 142.194 244.173 142.18L239.196 141.395C239.108 141.381 239.057 141.418 239.044 141.506L238.528 144.89C238.515 144.978 238.469 145.043 238.391 145.085C238.327 145.147 238.251 145.172 238.164 145.158L236.136 144.838C236.048 144.824 235.975 144.776 235.915 144.695C235.87 144.633 235.855 144.559 235.868 144.471L236.384 141.086C236.397 140.998 236.36 140.947 236.272 140.933L231.269 140.144C231.181 140.13 231.131 140.167 231.117 140.255L230.247 145.966C230.234 146.054 230.188 146.119 230.109 146.161C230.046 146.223 229.97 146.247 229.883 146.234L227.881 145.918C227.793 145.904 227.72 145.856 227.66 145.775C227.616 145.713 227.6 145.639 227.614 145.551L228.923 136.958C228.936 136.87 228.975 136.795 229.038 136.732C229.116 136.691 229.199 136.677 229.287 136.69L247.089 139.5C247.177 139.514 247.243 139.551 247.288 139.612C247.347 139.694 247.37 139.779 247.357 139.867L246.047 148.46C246.034 148.548 245.988 148.613 245.91 148.654C245.846 148.717 245.771 148.741 245.683 148.727L243.682 148.411Z" fill="white"/>
<path d="M223.675 159.483C224.17 158.055 224.997 157.055 226.157 156.484C227.328 155.935 228.628 155.912 230.056 156.416L238.653 159.447C240.098 159.957 241.093 160.788 241.636 161.941C242.191 163.117 242.22 164.419 241.725 165.847C241.225 167.292 240.394 168.3 239.234 168.872C238.091 169.449 236.797 169.483 235.352 168.974L235.049 168.867C234.965 168.837 234.901 168.777 234.857 168.686C234.807 168.612 234.797 168.533 234.826 168.449L235.538 166.07C235.607 165.868 235.743 165.803 235.945 165.874L236.575 166.096C237.163 166.303 237.701 166.304 238.187 166.099C238.673 165.893 239.012 165.513 239.204 164.958C239.391 164.421 239.357 163.919 239.104 163.452C238.851 162.986 238.43 162.649 237.842 162.442L228.816 159.259C228.228 159.052 227.691 159.051 227.205 159.257C226.719 159.462 226.382 159.834 226.196 160.372C226.004 160.926 226.034 161.437 226.288 161.903C226.541 162.369 226.962 162.706 227.55 162.914L228.18 163.136C228.264 163.166 228.323 163.215 228.356 163.283C228.4 163.374 228.407 163.461 228.378 163.545L227.465 165.853C227.436 165.937 227.379 165.993 227.294 166.019C227.22 166.069 227.142 166.079 227.057 166.049L226.755 165.942C225.326 165.439 224.327 164.596 223.755 163.414C223.201 162.238 223.174 160.928 223.675 159.483Z" fill="white"/>
<path d="M229.637 191.285C229.593 191.362 229.527 191.405 229.438 191.416C229.357 191.45 229.277 191.445 229.2 191.4L227.438 190.378C227.361 190.333 227.309 190.262 227.283 190.164C227.263 190.091 227.275 190.016 227.319 189.939L229.002 187.009C229.046 186.932 229.029 186.872 228.952 186.827L215.439 178.982C215.362 178.937 215.31 178.866 215.284 178.768C215.264 178.695 215.276 178.62 215.32 178.544L216.539 176.421C216.583 176.344 216.646 176.288 216.728 176.254C216.816 176.243 216.899 176.261 216.976 176.306L230.489 184.15C230.566 184.195 230.627 184.179 230.671 184.102L232.261 181.334C232.305 181.257 232.368 181.201 232.45 181.167C232.538 181.156 232.621 181.174 232.698 181.219L234.46 182.241C234.537 182.286 234.585 182.345 234.605 182.418C234.632 182.516 234.623 182.603 234.579 182.68L229.637 191.285Z" fill="white"/>
<path d="M204.603 193.537C205.554 192.418 206.662 191.805 207.927 191.699C209.192 191.593 210.375 192.012 211.477 192.955L212.008 193.409C212.076 193.467 212.113 193.534 212.119 193.609C212.128 193.71 212.104 193.794 212.046 193.861L210.482 195.702C210.424 195.77 210.351 195.8 210.263 195.794C210.176 195.813 210.099 195.794 210.031 195.735L209.622 195.386C209.092 194.932 208.555 194.694 208.01 194.671C207.455 194.661 206.999 194.865 206.644 195.283C206.288 195.701 206.146 196.173 206.216 196.699C206.299 197.237 206.593 197.721 207.096 198.152C207.45 198.454 207.819 198.642 208.204 198.715C208.588 198.787 209.011 198.788 209.471 198.716C209.932 198.644 210.632 198.498 211.571 198.277C212.634 198.021 213.534 197.848 214.27 197.755C214.995 197.677 215.743 197.723 216.514 197.893C217.287 198.089 218.028 198.49 218.735 199.095C219.864 200.061 220.475 201.167 220.569 202.411C220.662 203.656 220.239 204.832 219.299 205.938C218.348 207.057 217.226 207.658 215.934 207.741C214.656 207.835 213.439 207.387 212.283 206.398L211.793 205.979C211.725 205.921 211.687 205.841 211.678 205.741C211.672 205.666 211.697 205.594 211.754 205.527L213.302 203.706C213.359 203.638 213.431 203.595 213.518 203.576C213.606 203.582 213.685 203.614 213.753 203.673L214.283 204.127C214.814 204.58 215.35 204.806 215.892 204.804C216.437 204.827 216.892 204.623 217.259 204.192C217.603 203.787 217.734 203.329 217.652 202.816C217.584 202.315 217.292 201.844 216.775 201.402C216.285 200.983 215.756 200.762 215.186 200.741C214.606 200.733 213.672 200.878 212.386 201.175C211.075 201.474 210.044 201.664 209.294 201.744C208.558 201.837 207.861 201.8 207.204 201.633C206.547 201.467 205.898 201.11 205.259 200.563C204.103 199.573 203.463 198.432 203.34 197.139C203.231 195.857 203.652 194.657 204.603 193.537Z" fill="white"/>
<path d="M191.78 214.465C192.28 214.131 192.827 213.948 193.422 213.917C194.003 213.896 194.563 214.018 195.101 214.284C195.639 214.55 196.073 214.929 196.401 215.421C196.919 216.197 197.092 217.03 196.921 217.92C196.736 218.821 196.261 219.526 195.497 220.036C194.747 220.537 193.929 220.696 193.042 220.512C192.14 220.338 191.43 219.863 190.913 219.088C190.584 218.595 190.401 218.049 190.362 217.45C190.323 216.85 190.432 216.281 190.689 215.743C190.932 215.215 191.295 214.788 191.78 214.465Z" fill="white"/>
<circle cx="124" cy="124" r="8" fill="white"/>
</svg>
